<svg width="925" height="631" viewBox="0 0 925 631" fill="none" xmlns="http://www.w3.org/2000/svg">
<g clip-path="url(#clip0_68_11993)">
<rect width="925" height="631" fill="white"/>
<path d="M875.533 -33C906.719 -33 932 -21.7884 932 -7.95853L932 640.957C932 654.785 906.719 666 875.534 666L56.4688 666C25.2886 666 1.21021e-05 654.785 1.21021e-05 640.957L1.21021e-05 -7.95853C1.21021e-05 -21.7884 25.2886 -33 56.4688 -33L875.533 -33Z" fill="url(#paint0_linear_68_11993)"/>
<rect width="620" height="707" transform="translate(312 -281)" fill="#4ADE80" fill-opacity="0.1"/>
<g clip-path="url(#clip1_68_11993)">
<path d="M115.557 355.053C116.534 353.462 117.15 351.676 117.361 349.822C117.573 347.967 117.375 346.089 116.781 344.319C116.187 342.549 115.213 340.931 113.925 339.578C112.638 338.226 111.069 337.172 109.33 336.49L111.136 291.155L90.9338 303.342L92.3156 344.524C91.3633 347.519 91.5437 350.759 92.8227 353.63C94.1017 356.501 96.3904 358.803 99.2552 360.101C102.12 361.399 105.362 361.602 108.366 360.671C111.371 359.741 113.929 357.742 115.557 355.053Z" fill="#A0616A"/>
<path d="M88.5935 325.662L106.554 328.529C107.308 328.65 108.079 328.618 108.82 328.436C109.562 328.254 110.26 327.925 110.872 327.469C111.484 327.014 111.999 326.44 112.386 325.782C112.773 325.124 113.024 324.396 113.125 323.64L120.723 266.468L158.271 215.134C159.661 213.233 160.647 211.067 161.168 208.771C161.688 206.475 161.732 204.096 161.297 201.782C160.862 199.468 159.958 197.267 158.639 195.316C157.32 193.364 155.615 191.704 153.629 190.436C149.772 187.974 145.096 187.143 140.627 188.126C136.157 189.11 132.261 191.826 129.797 195.679L91.449 255.63L83.8166 319.342C83.7676 319.749 83.762 320.159 83.7998 320.567C83.9181 321.828 84.4536 323.013 85.3218 323.936C86.1899 324.859 87.3411 325.466 88.5935 325.662Z" fill="#40DC8B"/>
<path d="M150.513 537.863H166.094L173.506 477.824L150.511 477.825L150.513 537.863Z" fill="#A0616A"/>
<path d="M177.223 533.416H147.175V552.317H196.143C196.143 547.304 194.149 542.497 190.601 538.952C187.053 535.407 182.241 533.416 177.223 533.416Z" fill="#2F2E41"/>
<path d="M84.7774 511.221L96.4186 521.567L139.812 478.821L124.72 466.362L84.7774 511.221Z" fill="#A0616A"/>
<path d="M107.692 525.633L85.2412 505.681L72.6667 519.804L109.254 552.318C110.905 550.464 112.174 548.302 112.99 545.957C113.805 543.613 114.15 541.131 114.005 538.653C113.86 536.175 113.228 533.75 112.145 531.516C111.062 529.282 109.549 527.283 107.692 525.633Z" fill="#2F2E41"/>
<path d="M307.086 194.543C305.266 194.12 303.376 194.1 301.548 194.485C299.72 194.87 297.998 195.651 296.505 196.773C295.012 197.895 293.783 199.33 292.905 200.977C292.027 202.625 291.521 204.445 291.423 206.309L247.797 218.916L265.753 234.217L304.428 219.898C307.573 219.855 310.593 218.661 312.916 216.542C315.238 214.422 316.702 211.526 317.03 208.4C317.357 205.275 316.526 202.138 314.693 199.584C312.86 197.03 310.154 195.236 307.086 194.543Z" fill="#A0616A"/>
<path d="M171.073 151.035C153.834 151.035 139.859 137.073 139.859 119.851C139.859 102.628 153.834 88.667 171.073 88.667C188.312 88.667 202.287 102.628 202.287 119.851C202.287 137.073 188.312 151.035 171.073 151.035Z" fill="#A0616A"/>
<path d="M148.6 526.621L170.286 524.888C171.687 524.776 172.997 524.153 173.968 523.138C174.938 522.122 175.5 520.785 175.545 519.381L181.598 336.764C181.648 335.353 181.171 333.974 180.261 332.894C179.351 331.813 178.073 331.109 176.672 330.917L133.438 324.89C132.547 324.766 131.639 324.853 130.789 325.145C129.938 325.437 129.169 325.925 128.542 326.57C127.916 327.215 127.451 327.999 127.185 328.857C126.918 329.715 126.859 330.624 127.01 331.51L143.554 428.319C143.6 428.585 143.621 428.855 143.618 429.125L142.425 520.851C142.415 521.607 142.556 522.359 142.839 523.061C143.122 523.763 143.542 524.402 144.075 524.94C144.607 525.479 145.241 525.906 145.94 526.198C146.639 526.49 147.39 526.64 148.147 526.64C148.298 526.64 148.449 526.633 148.6 526.621Z" fill="#2F2E41"/>
<path d="M120.827 504.719L195.324 421.889C195.86 421.293 196.264 420.591 196.511 419.829C196.758 419.067 196.842 418.262 196.757 417.465L187.348 329.345C187.194 327.877 186.475 326.525 185.344 325.575C184.212 324.625 182.756 324.15 181.282 324.251L135.561 327.296C134.687 327.354 133.838 327.612 133.079 328.05C132.321 328.488 131.674 329.094 131.187 329.822C130.7 330.549 130.387 331.379 130.272 332.246C130.157 333.114 130.243 333.996 130.524 334.826L157.918 415.788C158.181 416.56 158.225 417.389 158.046 418.184C157.868 418.98 157.473 419.711 156.905 420.296L93.6243 485.814C93.0246 486.435 92.5734 487.184 92.3047 488.004C92.036 488.824 91.9567 489.694 92.0728 490.549C92.1888 491.404 92.4972 492.222 92.9748 492.941C93.4524 493.66 94.0869 494.261 94.8305 494.7L113.664 505.819C114.802 506.488 116.136 506.744 117.441 506.543C118.746 506.343 119.942 505.698 120.827 504.719Z" fill="#2F2E41"/>
<path d="M176.667 170.297C176.667 170.297 157.603 153.791 148.707 162.679C148.707 162.679 107.404 188.706 125.196 259.807C125.196 259.807 109.946 328.368 116.3 330.907C122.654 333.446 186.834 342.969 191.917 335.351C197.001 327.733 199.542 210.925 176.667 170.297Z" fill="#40DC8B"/>
<path d="M287.693 229.386L284.743 211.456C284.619 210.703 284.345 209.983 283.938 209.338C283.531 208.692 282.998 208.135 282.372 207.698C281.746 207.262 281.038 206.955 280.291 206.796C279.544 206.637 278.773 206.629 278.023 206.773L221.326 217.629L160.713 198.253C158.468 197.536 156.1 197.285 153.755 197.518C151.409 197.75 149.137 198.459 147.076 199.602C145.016 200.746 143.212 202.298 141.775 204.165C140.338 206.031 139.3 208.172 138.723 210.455C137.603 214.888 138.291 219.583 140.637 223.509C142.982 227.435 146.793 230.27 151.231 231.389L220.28 248.801L283.199 235.911C283.601 235.829 283.993 235.704 284.368 235.54C285.528 235.029 286.485 234.147 287.087 233.033C287.689 231.918 287.903 230.635 287.693 229.386Z" fill="#40DC8B"/>
<path d="M157.678 145.146C154.826 138.55 152.412 129.767 157.883 125.104C161.057 122.399 165.628 122.394 169.785 122.057C181.5 121.109 193.558 115.725 199.283 105.471C205.009 95.2176 201.811 79.971 191.01 75.3449C183.729 72.2267 175.381 74.3509 167.76 76.51L144.877 82.9928C138.078 84.919 130.939 87.0433 126.044 92.1361C118.237 100.258 118.821 113.989 125.021 123.392C131.222 132.796 140.559 142.603 151.249 146.173L157.678 145.146Z" fill="#2F2E41"/>
<path d="M-13.7285 555H301.448C301.785 555 302.108 554.866 302.347 554.628C302.585 554.39 302.719 554.067 302.719 553.731C302.719 553.394 302.585 553.071 302.347 552.833C302.108 552.595 301.785 552.461 301.448 552.461H-13.7285C-14.0656 552.461 -14.3888 552.595 -14.6271 552.833C-14.8655 553.071 -14.9994 553.394 -14.9994 553.731C-14.9994 554.067 -14.8655 554.39 -14.6271 554.628C-14.3888 554.866 -14.0656 555 -13.7285 555Z" fill="#3F3D56"/>
<path d="M319.189 -46H938.104C940.462 -45.9974 942.724 -45.0602 944.392 -43.394C946.059 -41.7279 946.997 -39.4688 947 -37.1125V419.96C946.997 422.317 946.059 424.576 944.392 426.242C942.724 427.908 940.462 428.845 938.104 428.848H319.189C316.83 428.845 314.569 427.908 312.901 426.242C311.234 424.576 310.296 422.317 310.293 419.96V-37.1125C310.296 -39.4688 311.234 -41.7279 312.901 -43.394C314.569 -45.0602 316.83 -45.9974 319.189 -46ZM312.835 419.96C312.835 421.644 313.505 423.258 314.697 424.448C315.888 425.639 317.504 426.308 319.189 426.309H938.104C939.789 426.308 941.405 425.639 942.596 424.448C943.788 423.258 944.458 421.644 944.458 419.96V-37.1125C944.458 -38.7959 943.788 -40.4102 942.596 -41.6006C941.405 -42.791 939.789 -43.46 938.104 -43.4607H319.189C317.504 -43.46 315.888 -42.791 314.697 -41.6006C313.505 -40.4102 312.835 -38.7959 312.835 -37.1125V419.96Z" fill="#3F3D56"/>
<path d="M563.422 349.247C563.76 349.247 564.083 349.113 564.321 348.875C564.559 348.637 564.693 348.314 564.693 347.978V295.922C564.693 295.585 564.559 295.262 564.321 295.024C564.083 294.786 563.76 294.652 563.422 294.652C563.085 294.652 562.762 294.786 562.524 295.024C562.285 295.262 562.152 295.585 562.152 295.922V347.978C562.152 348.314 562.286 348.637 562.524 348.875C562.762 349.113 563.085 349.247 563.422 349.247Z" fill="#3F3D56"/>
<path d="M565.164 275.608C565.388 275.608 565.609 275.549 565.802 275.436L638.007 233.405C638.298 233.235 638.509 232.957 638.595 232.632C638.681 232.306 638.633 231.961 638.464 231.67C638.294 231.379 638.016 231.167 637.691 231.081C637.365 230.995 637.019 231.042 636.728 231.211L564.523 273.241C564.281 273.381 564.093 273.598 563.987 273.856C563.881 274.114 563.863 274.4 563.936 274.67C564.009 274.939 564.169 275.177 564.391 275.347C564.613 275.516 564.884 275.608 565.164 275.608Z" fill="#3F3D56"/>
<path d="M709.572 275.607C709.851 275.607 710.123 275.516 710.345 275.346C710.567 275.177 710.727 274.939 710.8 274.669C710.873 274.4 710.855 274.114 710.749 273.855C710.642 273.597 710.454 273.381 710.213 273.24L638.008 231.21C637.717 231.042 637.371 230.996 637.046 231.083C636.721 231.169 636.444 231.381 636.275 231.671C636.105 231.961 636.058 232.306 636.143 232.631C636.228 232.956 636.439 233.234 636.729 233.405L708.933 275.435C709.127 275.548 709.347 275.607 709.572 275.607Z" fill="#3F3D56"/>
<path d="M490.181 339.09C490.406 339.091 490.626 339.031 490.82 338.918L563.025 296.888C563.316 296.718 563.527 296.44 563.613 296.114C563.698 295.789 563.651 295.443 563.482 295.152C563.312 294.862 563.034 294.65 562.708 294.564C562.383 294.478 562.037 294.524 561.745 294.693L489.54 336.723C489.299 336.864 489.111 337.08 489.005 337.338C488.898 337.597 488.88 337.883 488.953 338.152C489.026 338.422 489.186 338.66 489.408 338.829C489.63 338.999 489.902 339.091 490.181 339.09Z" fill="#3F3D56"/>
<path d="M634.589 339.09C634.869 339.09 635.14 338.998 635.362 338.829C635.584 338.659 635.744 338.421 635.817 338.151C635.89 337.882 635.872 337.596 635.766 337.338C635.66 337.079 635.472 336.863 635.23 336.723L563.026 294.692C562.734 294.525 562.389 294.479 562.064 294.565C561.739 294.652 561.461 294.863 561.292 295.153C561.123 295.443 561.076 295.789 561.161 296.114C561.246 296.439 561.456 296.717 561.746 296.887L633.951 338.917C634.145 339.03 634.365 339.09 634.589 339.09Z" fill="#3F3D56"/>
<path d="M637.133 210.855C637.47 210.855 637.792 210.722 638.031 210.485C638.269 210.247 638.403 209.925 638.404 209.589L638.521 163.39C638.522 163.223 638.489 163.058 638.426 162.904C638.363 162.75 638.269 162.609 638.152 162.491C638.034 162.373 637.894 162.279 637.74 162.215C637.586 162.151 637.421 162.118 637.254 162.117H637.251C636.914 162.117 636.591 162.25 636.353 162.488C636.115 162.725 635.981 163.048 635.98 163.384L635.862 209.583C635.862 209.749 635.894 209.915 635.958 210.069C636.021 210.223 636.114 210.363 636.232 210.481C636.35 210.6 636.49 210.693 636.644 210.758C636.798 210.822 636.963 210.855 637.13 210.855L637.133 210.855Z" fill="#3F3D56"/>
<path d="M620.696 234.872H653.805C655.321 234.871 656.774 234.268 657.847 233.197C658.919 232.126 659.522 230.674 659.523 229.159V212.169C659.522 210.655 658.919 209.202 657.847 208.131C656.774 207.06 655.321 206.458 653.805 206.456H620.696C619.18 206.458 617.726 207.06 616.654 208.131C615.582 209.202 614.979 210.655 614.977 212.169V229.159C614.979 230.674 615.582 232.126 616.654 233.197C617.726 234.268 619.18 234.871 620.696 234.872Z" fill="#CCCCCC"/>
<path d="M675.493 148.511H745.942C746.279 148.511 746.602 148.377 746.841 148.139C747.079 147.901 747.213 147.578 747.213 147.241C747.213 146.905 747.079 146.582 746.841 146.344C746.602 146.105 746.279 145.972 745.942 145.972H675.493C675.156 145.972 674.833 146.105 674.595 146.344C674.356 146.582 674.222 146.905 674.222 147.241C674.222 147.578 674.356 147.901 674.595 148.139C674.833 148.377 675.156 148.511 675.493 148.511Z" fill="#3F3D56"/>
<path d="M637.251 130.376C637.588 130.376 637.911 130.242 638.149 130.004C638.388 129.766 638.521 129.443 638.521 129.106V85.1603C638.521 84.8235 638.388 84.5006 638.149 84.2625C637.911 84.0244 637.588 83.8906 637.251 83.8906C636.914 83.8906 636.59 84.0244 636.352 84.2625C636.114 84.5006 635.98 84.8235 635.98 85.1603V129.106C635.98 129.443 636.114 129.766 636.352 130.004C636.59 130.242 636.914 130.376 637.251 130.376Z" fill="#3F3D56"/>
<path d="M773.353 148.511C773.58 148.511 773.804 148.45 773.999 148.334L842.392 107.837C842.681 107.665 842.89 107.385 842.972 107.059C843.055 106.734 843.006 106.388 842.834 106.099C842.663 105.81 842.383 105.6 842.057 105.517C841.731 105.433 841.385 105.482 841.096 105.652L772.703 146.149C772.464 146.291 772.277 146.508 772.173 146.766C772.069 147.024 772.052 147.309 772.126 147.577C772.2 147.846 772.36 148.083 772.581 148.251C772.803 148.42 773.074 148.511 773.353 148.511Z" fill="#3F3D56"/>
<path d="M841.742 189.008C842.02 189.008 842.291 188.917 842.513 188.748C842.734 188.579 842.895 188.343 842.968 188.074C843.042 187.806 843.026 187.521 842.921 187.263C842.817 187.004 842.631 186.788 842.391 186.646L773.999 146.149C773.709 145.977 773.362 145.928 773.036 146.011C772.709 146.095 772.429 146.304 772.257 146.594C772.086 146.884 772.036 147.23 772.119 147.556C772.203 147.882 772.413 148.162 772.703 148.334L841.095 188.83C841.291 188.947 841.514 189.008 841.742 189.008Z" fill="#3F3D56"/>
<path d="M751.027 168.99H768.033C769.549 168.988 771.003 168.385 772.075 167.314C773.147 166.243 773.75 164.791 773.752 163.276V130.2C773.75 128.685 773.147 127.233 772.075 126.162C771.003 125.091 769.549 124.488 768.033 124.486H751.027C749.511 124.488 748.057 125.091 746.985 126.162C745.913 127.233 745.31 128.685 745.308 130.2V163.276C745.31 164.791 745.913 166.243 746.985 167.314C748.057 168.385 749.511 168.988 751.027 168.99Z" fill="#CCCCCC"/>
<path d="M620.696 88.5772H653.805C655.321 88.5755 656.774 87.973 657.847 86.9019C658.919 85.8308 659.522 84.3785 659.523 82.8638V65.8736C659.522 64.3588 658.919 62.9066 657.847 61.8355C656.774 60.7644 655.321 60.1619 653.805 60.1602H620.696C619.18 60.1619 617.726 60.7644 616.654 61.8355C615.582 62.9066 614.979 64.3588 614.977 65.8736V82.8638C614.979 84.3785 615.582 85.8308 616.654 86.9019C617.726 87.973 619.18 88.5755 620.696 88.5772Z" fill="#CCCCCC"/>
<path d="M846.341 129.631H863.347C864.864 129.63 866.317 129.027 867.39 127.956C868.462 126.885 869.065 125.433 869.066 123.918V90.8413C869.065 89.3266 868.462 87.8743 867.39 86.8032C866.317 85.7321 864.864 85.1296 863.347 85.1279H846.341C844.825 85.1296 843.371 85.7321 842.299 86.8032C841.227 87.8743 840.624 89.3266 840.622 90.8413V123.918C840.624 125.433 841.227 126.885 842.299 127.956C843.371 129.027 844.825 129.63 846.341 129.631Z" fill="#CCCCCC"/>
<path d="M846.341 209.619H863.347C864.864 209.617 866.317 209.014 867.39 207.943C868.462 206.872 869.065 205.42 869.066 203.905V170.829C869.065 169.314 868.462 167.862 867.39 166.791C866.317 165.719 864.864 165.117 863.347 165.115H846.341C844.825 165.117 843.371 165.719 842.299 166.791C841.227 167.862 840.624 169.314 840.622 170.829V203.905C840.624 205.42 841.227 206.872 842.299 207.943C843.371 209.014 844.825 209.617 846.341 209.619Z" fill="#CCCCCC"/>
<path d="M528.557 148.511H599.006C599.344 148.511 599.667 148.377 599.905 148.139C600.143 147.901 600.277 147.578 600.277 147.241C600.277 146.905 600.143 146.582 599.905 146.344C599.667 146.105 599.344 145.972 599.006 145.972H528.557C528.22 145.972 527.897 146.105 527.659 146.344C527.421 146.582 527.287 146.905 527.287 147.241C527.287 147.578 527.421 147.901 527.659 148.139C527.897 148.377 528.22 148.511 528.557 148.511Z" fill="#3F3D56"/>
<path d="M501.148 148.511C501.426 148.511 501.697 148.42 501.919 148.251C502.141 148.082 502.301 147.846 502.375 147.577C502.448 147.309 502.432 147.023 502.327 146.765C502.223 146.507 502.037 146.29 501.797 146.149L433.405 105.652C433.261 105.567 433.102 105.511 432.937 105.487C432.772 105.464 432.604 105.473 432.442 105.514C432.28 105.556 432.128 105.628 431.995 105.728C431.861 105.828 431.749 105.954 431.664 106.097C431.579 106.241 431.523 106.399 431.499 106.564C431.475 106.729 431.484 106.898 431.526 107.059C431.567 107.221 431.64 107.372 431.74 107.506C431.84 107.639 431.966 107.752 432.109 107.837L500.501 148.333C500.697 148.449 500.92 148.511 501.148 148.511Z" fill="#3F3D56"/>
<path d="M432.758 189.008C432.986 189.008 433.209 188.946 433.405 188.83L501.797 148.334C502.087 148.162 502.297 147.882 502.38 147.556C502.464 147.23 502.414 146.884 502.242 146.594C502.071 146.304 501.791 146.095 501.464 146.011C501.137 145.928 500.791 145.977 500.501 146.149L432.109 186.646C431.869 186.788 431.683 187.004 431.579 187.262C431.474 187.52 431.458 187.806 431.531 188.074C431.605 188.343 431.765 188.579 431.987 188.748C432.209 188.917 432.48 189.008 432.758 189.008Z" fill="#3F3D56"/>
<path d="M506.468 168.99H523.474C524.991 168.988 526.444 168.385 527.516 167.314C528.589 166.243 529.192 164.791 529.193 163.276V130.2C529.192 128.685 528.589 127.233 527.516 126.162C526.444 125.091 524.991 124.488 523.474 124.486H506.468C504.952 124.488 503.499 125.091 502.426 126.162C501.354 127.233 500.751 128.685 500.75 130.2V163.276C500.751 164.791 501.354 166.243 502.426 167.314C503.499 168.385 504.952 168.988 506.468 168.99Z" fill="#CCCCCC"/>
<path d="M411.152 129.631H428.158C429.674 129.63 431.128 129.027 432.2 127.956C433.272 126.885 433.875 125.433 433.877 123.918V90.8413C433.875 89.3266 433.272 87.8744 432.2 86.8033C431.128 85.7322 429.674 85.1296 428.158 85.1279H411.152C409.636 85.1296 408.182 85.7322 407.11 86.8033C406.038 87.8744 405.435 89.3266 405.433 90.8413V123.918C405.435 125.433 406.038 126.885 407.11 127.956C408.182 129.027 409.636 129.63 411.152 129.631Z" fill="#CCCCCC"/>
<path d="M411.152 209.619H428.158C429.674 209.617 431.128 209.014 432.2 207.943C433.272 206.872 433.875 205.42 433.877 203.905V170.829C433.875 169.314 433.272 167.862 432.2 166.791C431.128 165.719 429.674 165.117 428.158 165.115H411.152C409.636 165.117 408.182 165.719 407.11 166.791C406.038 167.862 405.435 169.314 405.433 170.829V203.905C405.435 205.42 406.038 206.872 407.11 207.943C408.182 209.014 409.636 209.617 411.152 209.619Z" fill="#CCCCCC"/>
<path d="M694.407 299.624H727.515C729.032 299.623 730.485 299.02 731.558 297.949C732.63 296.878 733.233 295.426 733.234 293.911V276.921C733.233 275.407 732.63 273.954 731.558 272.883C730.485 271.812 729.032 271.21 727.515 271.208H694.407C692.89 271.21 691.437 271.812 690.365 272.883C689.293 273.954 688.689 275.407 688.688 276.921V293.911C688.689 295.426 689.293 296.878 690.365 297.949C691.437 299.02 692.89 299.623 694.407 299.624Z" fill="#CCCCCC"/>
<path d="M547.219 299.624H580.328C581.844 299.623 583.298 299.02 584.37 297.949C585.442 296.878 586.045 295.426 586.047 293.911V276.921C586.045 275.407 585.442 273.954 584.37 272.883C583.298 271.812 581.844 271.21 580.328 271.208H547.219C545.703 271.21 544.249 271.812 543.177 272.883C542.105 273.954 541.502 275.407 541.5 276.921V293.911C541.502 295.426 542.105 296.878 543.177 297.949C544.249 299.02 545.703 299.623 547.219 299.624Z" fill="#CCCCCC"/>
<path d="M614.577 361.837H647.685C649.202 361.836 650.655 361.233 651.727 360.162C652.8 359.091 653.403 357.639 653.404 356.124V339.134C653.403 337.62 652.8 336.167 651.727 335.096C650.655 334.025 649.202 333.423 647.685 333.421H614.577C613.06 333.423 611.607 334.025 610.535 335.096C609.462 336.167 608.859 337.62 608.858 339.134V356.124C608.859 357.639 609.462 359.091 610.535 360.162C611.607 361.233 613.06 361.836 614.577 361.837Z" fill="#CCCCCC"/>
<path d="M473.51 361.837H506.619C508.135 361.836 509.589 361.233 510.661 360.162C511.733 359.091 512.336 357.639 512.338 356.124V339.134C512.336 337.62 511.733 336.167 510.661 335.096C509.589 334.025 508.135 333.423 506.619 333.421H473.51C471.994 333.423 470.54 334.025 469.468 335.096C468.396 336.167 467.793 337.62 467.791 339.134V356.124C467.793 357.639 468.396 359.091 469.468 360.162C470.54 361.233 471.994 361.836 473.51 361.837Z" fill="#CCCCCC"/>
<path d="M547.219 361.837H580.328C581.844 361.836 583.298 361.233 584.37 360.162C585.442 359.091 586.045 357.639 586.047 356.124V339.134C586.045 337.62 585.442 336.167 584.37 335.096C583.298 334.025 581.844 333.423 580.328 333.421H547.219C545.703 333.423 544.249 334.025 543.177 335.096C542.105 336.167 541.502 337.62 541.5 339.134V356.124C541.502 357.639 542.105 359.091 543.177 360.162C544.249 361.233 545.703 361.836 547.219 361.837Z" fill="#CCCCCC"/>
<path d="M597.003 169.328H677.498C679.014 169.326 680.468 168.724 681.54 167.653C682.612 166.581 683.215 165.129 683.217 163.614V130.868C683.215 129.353 682.612 127.901 681.54 126.83C680.468 125.759 679.014 125.156 677.498 125.154H597.003C595.487 125.156 594.033 125.759 592.961 126.83C591.889 127.901 591.286 129.353 591.284 130.868V163.614C591.286 165.129 591.889 166.581 592.961 167.653C594.033 168.724 595.487 169.326 597.003 169.328Z" fill="#40DC8B"/>
</g>
</g>
<defs>
<linearGradient id="paint0_linear_68_11993" x1="932" y1="-7.99999" x2="612" y2="485" gradientUnits="userSpaceOnUse">
<stop stop-color="#E3F5DC" stop-opacity="0.8"/>
<stop offset="1" stop-color="#E3F5DC" stop-opacity="0.04"/>
</linearGradient>
<clipPath id="clip0_68_11993">
<rect width="925" height="631" fill="white"/>
</clipPath>
<clipPath id="clip1_68_11993">
<rect width="962" height="601" fill="white" transform="matrix(-1 0 0 1 947 -46)"/>
</clipPath>
</defs>
</svg>
