<svg width="925" height="631" viewBox="0 0 925 631" fill="none" xmlns="http://www.w3.org/2000/svg">
<g clip-path="url(#clip0_68_11919)">
<rect width="925" height="631" fill="white"/>
<path d="M875.533 -33C906.719 -33 932 -21.7884 932 -7.95853L932 640.957C932 654.785 906.719 666 875.534 666L56.4688 666C25.2886 666 1.21021e-05 654.785 1.21021e-05 640.957L1.21021e-05 -7.95853C1.21021e-05 -21.7884 25.2886 -33 56.4688 -33L875.533 -33Z" fill="url(#paint0_linear_68_11919)"/>
<path d="M405.072 143.544C407.598 138.452 411.636 134.224 414.106 129.104C416.576 123.984 417.057 117.131 412.942 113.212C409.448 109.885 403.975 109.838 399.796 107.428C389.151 101.287 389.164 81.7834 376.994 80.0982C371.076 79.2787 365.721 83.7217 362.144 88.5122C358.568 93.3028 355.718 98.8928 350.757 102.226C345.142 105.999 337.882 106.163 331.646 108.783C319.691 113.808 313.423 126.728 308.182 138.601C304.805 146.25 301.352 154.5 302.918 162.714C299.513 164.835 301.031 170.54 304.43 172.671C307.828 174.802 312.097 174.755 316 175.678C324.202 177.618 330.919 184.155 334.103 191.968C336.585 198.057 337.092 204.743 337.571 211.302C338.402 222.684 339.233 234.066 340.064 245.447C340.433 250.511 340.918 255.892 343.997 259.927C347.076 263.962 353.742 265.652 357.203 261.941C360.511 258.394 359.021 252.779 358.954 247.928C358.887 243.076 363.268 237.034 367.399 239.573L368.855 236.264C378.29 232.881 386.552 226.849 392.651 218.888C398.75 210.927 402.429 201.376 403.247 191.376C404.302 175.27 397.9 158 405.072 143.544Z" fill="#696969"/>
<path d="M414.941 244.952C415.851 244.12 416.497 243.052 416.802 241.876C417.107 240.699 417.059 239.462 416.664 238.311C416.269 237.159 415.543 236.142 414.571 235.378C413.6 234.614 412.424 234.136 411.182 234L411.197 234.529C409.425 235.534 407.403 236.05 405.351 236.021C403.306 235.989 401.271 236.302 399.336 236.946C398.374 237.285 397.54 237.9 396.945 238.708C396.349 239.516 396.02 240.481 396 241.474C396.112 242.236 396.412 242.96 396.875 243.585C397.337 244.21 397.948 244.717 398.655 245.064C400.075 245.743 401.6 246.193 403.17 246.395C407.214 247.133 411.947 247.692 414.941 244.952Z" fill="#696969"/>
<path d="M493.363 143.172C494.948 141.991 496.294 140.463 497.316 138.686C497.812 137.786 498.047 136.743 497.992 135.695C497.937 134.646 497.594 133.639 497.008 132.808C495.814 131.673 494.279 131.065 492.699 131.102C488.409 130.751 484.098 131.308 480 132.743C484.208 136.829 488.415 140.914 492.623 145L493.363 143.172Z" fill="#696969"/>
<path d="M471.076 154.05C472.896 156.08 472.316 159.23 471.8 161.92C471.285 164.61 471.22 167.971 473.509 169.439C475.493 170.711 478.277 169.673 479.728 167.805C481.025 165.813 481.816 163.528 482.029 161.153C482.742 157.702 483.064 154.179 482.989 150.654C482.903 147.102 481.664 143.677 479.462 140.908C477.899 139.107 475.818 137.846 473.51 137.301C471.202 136.756 468.783 136.955 466.593 137.869L468.685 137.765C467.164 139.739 466.011 141.975 465.281 144.366C464.932 145.567 464.908 146.841 465.21 148.055C465.512 149.269 466.131 150.379 467.001 151.269C468.242 152.361 469.971 152.817 471.076 154.05Z" fill="#696969"/>
<path d="M573.621 120.118L574 119C572.411 119.878 571.185 121.252 570.529 122.89C569.873 124.528 569.826 126.332 570.396 128C571.618 127.079 572.562 125.863 573.129 124.477C573.695 123.092 573.865 121.587 573.621 120.118Z" fill="#696969"/>
<path d="M553.671 136.405C555.64 135.299 557.32 133.751 558.577 131.884C559.834 130.017 560.632 127.885 560.909 125.656C561.122 124.271 560.96 122.854 560.44 121.551C560.173 120.904 559.749 120.333 559.206 119.888C558.663 119.443 558.017 119.138 557.327 119L556.485 120.315C555.277 119.284 553.249 120.344 552.741 121.843C552.413 123.399 552.549 125.015 553.133 126.496C553.715 127.985 553.688 129.641 553.059 131.111C552.38 131.976 551.617 132.771 550.78 133.487C550.371 133.856 550.104 134.355 550.025 134.898C549.945 135.441 550.059 135.994 550.345 136.463C551.137 137.362 552.62 136.985 553.671 136.405Z" fill="#696969"/>
<path d="M544.936 129.608C545.709 128.371 546.073 126.964 545.988 125.551L544.013 125C542.751 125.455 541.631 126.175 540.75 127.099C540.483 127.338 540.278 127.626 540.15 127.944C540.023 128.261 539.975 128.6 540.012 128.935C540.049 129.271 540.168 129.595 540.362 129.884C540.556 130.174 540.82 130.421 541.134 130.61C541.448 130.798 541.806 130.922 542.18 130.973C542.555 131.025 542.937 131.002 543.3 130.906C543.664 130.81 543.999 130.644 544.282 130.42C544.564 130.195 544.788 129.918 544.936 129.608Z" fill="#696969"/>
<path d="M632.81 136.201C634.575 134.793 636.339 133.385 638.104 131.977C639.041 131.323 639.84 130.494 640.456 129.538C640.877 128.633 641.058 127.637 640.984 126.644C640.909 125.651 640.581 124.693 640.03 123.859C639.053 122.38 637.829 121.075 636.411 120C634.853 120.364 633.483 121.279 632.563 122.571C631.643 123.864 631.235 125.445 631.417 127.014C631.735 129.01 633.006 131.145 631.969 132.888C631.565 133.566 630.87 134.028 630.404 134.667C629.939 135.306 629.788 136.323 630.428 136.793C631.138 137.315 632.122 136.75 632.81 136.201Z" fill="#696969"/>
<path d="M636.259 143.994C636.92 144.025 637.581 143.933 638.197 143.726C638.813 143.519 639.369 143.201 639.829 142.794C642.205 141.13 644.284 139.178 646 137C642 138.083 638 139.165 634 140.248L635.247 141.494C634.139 142.112 634.96 143.782 636.259 143.994Z" fill="#696969"/>
<path d="M647.119 152.983C647.344 153.629 647.75 154.174 648.276 154.535C648.802 154.896 649.419 155.054 650.032 154.984C650.643 154.892 651.228 154.651 651.747 154.277C652.266 153.904 652.706 153.407 653.035 152.821C653.595 151.893 653.924 150.814 653.988 149.695C654.053 148.576 653.85 147.458 653.402 146.456C652.953 145.455 652.275 144.607 651.437 143.999C650.599 143.391 649.632 143.046 648.636 143L649.652 144.746C649.911 147.727 646.309 150.13 647.119 152.983Z" fill="#696969"/>
<path d="M721.89 182.766C722.893 183.57 724.111 184.003 725.363 184C726.614 183.997 727.831 183.557 728.83 182.748C729.478 182.153 730.005 181.421 730.377 180.597C730.75 179.773 730.96 178.876 730.995 177.961C731.03 177.046 730.888 176.133 730.579 175.279C730.271 174.425 729.801 173.65 729.2 173L727.306 174.136C726.256 173.411 724.984 173.152 723.759 173.413C722.534 173.675 721.452 174.436 720.739 175.538C720.1 176.693 719.864 178.055 720.075 179.38C720.286 180.705 720.93 181.905 721.89 182.766Z" fill="#696969"/>
<path d="M744.238 184.816C745.14 184.554 745.959 184.065 746.618 183.395C747.277 182.725 747.753 181.897 748 180.991L744.4 180.517C743.399 179.761 742.233 179.251 740.998 179.03C740.379 178.937 739.746 179.06 739.207 179.378C738.667 179.697 738.253 180.191 738.034 180.778C737.958 181.278 738.01 181.788 738.187 182.262C738.364 182.735 738.658 183.156 739.043 183.483C739.723 184.131 740.557 184.595 741.467 184.828C742.376 185.061 743.331 185.057 744.238 184.816Z" fill="#696969"/>
<path d="M728 192.955C728.07 193.565 728.323 194.143 728.73 194.623C729.136 195.102 729.68 195.463 730.296 195.662C730.969 195.963 731.723 196.066 732.46 195.959C733.196 195.851 733.881 195.538 734.427 195.06C734.667 194.805 734.839 194.499 734.929 194.168C735.019 193.838 735.023 193.492 734.943 193.159C734.862 192.826 734.697 192.517 734.464 192.256C734.23 191.995 733.934 191.79 733.599 191.658L730.611 191.147C729.457 190.585 727.981 191.732 728 192.955Z" fill="#696969"/>
<path d="M563 213L561 210C561.532 211.218 562.213 212.24 563 213Z" fill="#696969"/>
<path d="M546.327 201.053C547.684 207.359 554.471 212.496 560.633 210.601L560.958 210.898C558.996 208.212 558.664 204.236 559.122 200.779C559.972 194.854 562.3 189.239 565.89 184.452C569.48 179.666 574.217 175.86 579.664 173.389C581.156 172.922 582.49 172.053 583.519 170.875C584.398 169.59 584.07 167.386 582.557 167.023C581.735 166.929 580.905 167.121 580.208 167.567L568.757 173.207C562.974 176.056 557.075 178.986 552.532 183.563C547.989 188.139 544.97 194.746 546.327 201.053Z" fill="#696969"/>
<path d="M360.966 417.823C350.406 410.21 338.84 404.124 326.605 399.74C319.085 397.048 311.004 394.994 303.168 396.522C298.871 397.418 294.845 399.321 291.415 402.078C287.986 404.834 285.251 408.367 283.432 412.388C281.68 416.439 280.855 420.834 281.021 425.249C281.186 429.664 282.336 433.985 284.387 437.891C288 444.71 294.257 450.141 296.349 457.577C297.759 462.59 297.091 467.928 296.413 473.094C295.025 483.65 293.638 494.206 292.251 504.762C290.988 514.373 289.757 524.374 292.779 533.579C295.8 542.784 304.423 550.897 314.001 549.92L315.899 549.776C309.563 545.437 307.787 536.455 309.674 528.977C311.56 521.499 316.348 515.158 321.023 509.044C334.895 490.904 348.768 472.763 362.641 454.623C368.253 447.283 374.19 438.211 371.197 429.452C369.496 424.472 365.217 420.889 360.966 417.823Z" fill="#696969"/>
<path d="M265.858 371.993C264.443 371.511 262.949 372.583 262.117 373.83C261.445 375.17 260.655 376.447 259.757 377.645C257.581 379.901 253.616 379.453 251.269 377.378C248.923 375.303 247.906 372.094 247.45 368.985C246.904 365.255 247.14 361.093 249.588 358.237C252.108 355.297 256.251 354.508 260.062 353.898C264 353.267 268.411 352.741 271.636 355.097C273.668 356.582 274.852 358.977 276.735 360.649C278.617 362.321 281.965 362.954 283.381 360.869C283.752 360.13 283.939 359.311 283.928 358.484C283.916 357.656 283.705 356.843 283.313 356.115C282.517 354.665 282.038 353.06 281.908 351.408C282.003 349.116 283.834 347.294 285.706 345.984C287.579 344.674 289.694 343.543 290.923 341.61C292.434 339.232 292.274 336.169 293.211 333.509C295.481 327.071 303.579 324.207 305.938 317.802C306.506 316.455 306.57 314.946 306.118 313.555C305.13 311.004 302.462 311.505 302.298 308.386C302.141 305.404 304.615 302.479 307.129 301.233C310.596 299.515 314.637 299.654 318.499 299.55C322.362 299.446 326.524 298.929 329.358 296.289C330.276 295.338 330.983 294.202 331.434 292.957C331.886 291.712 332.07 290.386 331.976 289.064C331.882 287.742 331.512 286.455 330.889 285.287C330.267 284.12 329.406 283.097 328.363 282.287C326.251 280.82 323.58 280.31 321.525 278.763C318.965 276.836 317.753 273.628 315.759 271.114C314.101 269.2 312.203 267.51 310.113 266.086C308.402 264.81 306.691 263.533 304.98 262.257C301.887 259.949 298.669 257.582 294.905 256.76C291.142 255.938 286.66 257.101 284.775 260.479C284.032 261.984 283.626 263.635 283.586 265.315C283.414 269.271 283.578 273.235 284.076 277.163C284.387 280.324 284.698 283.486 285.008 286.648C285.287 289.482 284.988 293.219 282.252 293.955C276.182 295.587 278.23 286.562 276.884 283.797C274.823 279.564 265.356 277.532 261.308 275.768C258.78 274.667 256.113 273.451 254.587 271.144C252.687 268.274 253.077 264.367 254.567 261.262C256.056 258.156 258.483 255.628 260.688 252.988C262.936 250.296 264.983 247.442 267.027 244.592C269.398 241.285 271.769 237.979 274.14 234.673C277.181 230.432 280.378 225.257 278.65 220.326C278.276 219.666 277.716 219.132 277.042 218.791C276.367 218.449 275.607 218.316 274.857 218.407C274.107 218.498 273.401 218.809 272.826 219.302C272.251 219.795 271.834 220.447 271.626 221.177C270.869 223.839 272.889 227.238 270.957 229.211C270.295 229.747 269.467 230.032 268.617 230.016C267.768 230 266.95 229.684 266.309 229.124C265.058 227.962 264.105 226.512 263.531 224.899C261.19 219.668 258.91 214.405 256.507 209.203C255.748 207.558 254.955 204.742 252.653 205.019C250.655 205.26 249.575 208.188 249.645 209.888C249.746 212.362 251.106 214.572 252.145 216.817C253.184 219.061 253.91 221.756 252.77 223.95C251.325 226.728 247.666 227.352 244.55 227.26C238.677 227.081 232.923 225.554 227.726 222.796C227.591 225.699 227.455 228.602 227.319 231.505C223.183 229.764 219.048 228.023 214.912 226.282C214.109 225.944 213.305 225.606 212.502 225.268C209.014 223.8 205.521 222.329 201.929 221.137C199.89 220.461 197.823 219.875 195.757 219.289C194.5 218.933 193.244 218.577 191.988 218.221C189.509 217.337 186.88 216.96 184.254 217.111C181.496 217.46 179.036 218.949 176.484 220.063C170.793 222.548 163.431 220.048 157.332 220.004C154.912 216.452 151.646 213.567 147.831 211.612C144.017 209.658 139.776 208.696 135.496 208.815C131.216 208.934 127.035 210.131 123.334 212.295C119.632 214.459 116.53 217.522 114.31 221.203C113.238 223.068 112.283 224.999 111.451 226.984C110.623 228.849 109.795 230.715 108.968 232.58C107.754 235.316 106.513 238.198 106.751 241.184C106.99 244.171 109.267 247.222 112.246 247.195C105.221 250.393 103.759 261.585 109.724 266.499C111.376 267.86 113.402 268.75 114.888 270.291C116.012 271.456 116.763 272.933 117.047 274.53C117.33 276.128 117.132 277.775 116.478 279.259C115.825 280.742 114.745 281.996 113.377 282.858C112.01 283.721 110.418 284.152 108.805 284.098C112.967 285.716 117.551 285.866 121.809 284.525C126.067 283.184 129.747 280.43 132.247 276.714C134.798 272.699 135.906 267.682 139.376 264.437C143.97 260.139 151.56 260.473 156.859 263.852C162.159 267.231 165.511 272.985 167.817 278.853C170.839 286.544 172.773 295.332 179.211 300.477C182.324 302.964 186.267 304.363 189.018 307.249C192.937 311.36 193.615 317.564 193.526 323.257C193.438 328.951 192.828 334.858 194.89 340.161C196.953 345.464 202.865 349.825 208.167 347.826C206.648 352.358 206.695 357.272 208.299 361.774C209.904 366.276 212.972 370.101 217.008 372.631C216.042 366.606 215.076 360.581 214.11 354.556C218.924 355.919 222.044 360.615 223.847 365.307C225.649 369.998 226.601 375.072 229.213 379.361C233.326 386.115 240.775 389.025 248.352 389C256.537 388.972 259.645 385.048 265.039 379.268C266.123 378.281 266.945 377.039 267.432 375.654C267.653 374.955 267.615 374.2 267.325 373.528C267.036 372.855 266.515 372.31 265.858 371.993Z" fill="#696969"/>
<path d="M288.986 371.2C284.324 370.467 279.662 369.733 275 369C277.444 370.471 279.888 371.941 282.332 373.412C284.37 374.77 286.585 375.838 288.916 376.588C290.085 376.956 291.317 377.079 292.536 376.951C293.754 376.822 294.933 376.445 296 375.841L295.403 374.699C294.463 372.32 291.511 371.598 288.986 371.2Z" fill="#696969"/>
<path d="M285.969 397.129L286 397.046C285.728 396.57 285.327 396.19 284.85 395.956C284.372 395.722 283.839 395.645 283.319 395.733C282.283 395.929 281.224 395.947 280.182 395.787C279.521 395.514 278.931 395.077 278.462 394.514C277.993 393.951 277.658 393.277 277.486 392.549C277.039 391.128 276.906 389.608 276.397 388.211C276.03 387.106 275.38 386.129 274.521 385.389C273.662 384.648 272.626 384.173 271.527 384.014C270.425 383.921 269.332 384.289 268.485 385.041C267.637 385.792 267.104 386.865 267 388.028C267.087 389.226 267.447 390.384 268.05 391.402C268.535 392.387 269.02 393.373 269.505 394.359C269.914 395.242 270.384 396.092 270.912 396.902C271.771 398.152 272.893 399.173 274.191 399.884C275.488 400.595 276.925 400.977 278.387 400.999C279.848 401.021 281.295 400.683 282.611 400.011C283.927 399.339 285.077 398.352 285.969 397.129Z" fill="#696969"/>
<path d="M259.677 152.279C263.108 154.339 267.405 155.758 269.036 159.458L269.976 159.767C268.95 161.065 267.924 162.363 266.898 163.66C265.631 165.264 264.297 167.051 264.327 169.11C264.368 171.944 267.047 174.083 269.753 174.752C272.641 175.357 275.647 174.848 278.188 173.323C280.728 171.799 282.621 169.368 283.5 166.503C283.822 165.308 283.955 164.068 284.237 162.863C285.06 160.004 286.302 157.288 287.921 154.807C297.032 139.201 306.144 123.596 315.256 107.991C316.39 106.047 317.56 103.722 316.707 101.635C316.251 100.752 315.547 100.028 314.684 99.5568C313.82 99.0853 312.838 98.8877 311.864 98.9894C309.919 99.2299 308.043 99.8722 306.351 100.877C305.6 99.5325 304.539 98.3941 303.259 97.5592C301.98 96.7243 300.521 96.2179 299.007 96.0837C295.98 95.8459 292.936 96.1158 289.995 96.8828C283.35 97.9034 276.943 100.144 271.086 103.496C267.881 105.145 264.355 107.182 263.425 110.713C262.281 115.056 265.967 119.482 270.21 120.73C274.454 121.979 278.983 120.93 283.278 119.88C283.763 121.999 283.561 124.222 282.701 126.214C281.841 128.207 280.37 129.862 278.509 130.932C276.647 132.002 274.495 132.428 272.375 132.148C270.255 131.868 268.281 130.896 266.749 129.378C263.671 126.326 262.163 121.029 257.937 120.241C253.723 119.456 250.374 124.031 249.445 128.287C248.535 132.872 249.028 137.63 250.858 141.92C252.688 146.21 255.766 149.826 259.677 152.279Z" fill="#696969"/>
<path d="M313.475 228.128C311.393 222.241 308.657 216.608 305.319 211.336C302.788 207.167 299.665 203.391 296.047 200.127C292.741 197.263 288.941 195.029 284.834 193.537C280.847 192.09 276.409 191.376 272.379 192.695C268.348 194.014 264.92 197.773 265.001 202.025C265.092 206.727 269.192 210.404 273.466 212.336C277.739 214.268 282.493 215.109 286.525 217.507C289.266 219.175 291.557 221.493 293.196 224.257C294.835 227.022 295.773 230.148 295.926 233.36L296.941 235.045C294.641 235.81 292.495 236.982 290.607 238.505C289.671 239.28 288.956 240.288 288.534 241.428C288.111 242.569 287.997 243.801 288.201 245C288.905 247.847 291.803 249.481 294.423 250.783C299.265 253.189 304.106 255.594 308.947 258C306.482 250.625 314.553 243.763 315 235.998C315.017 233.299 314.499 230.624 313.475 228.128Z" fill="#696969"/>
<path d="M192.593 207.764C195.49 210.012 199.944 208.961 202.597 206.431C205.251 203.901 206.544 200.3 207.749 196.839C207.309 200.265 207.35 203.736 207.873 207.151C208.145 208.859 208.769 210.491 209.705 211.945C210.641 213.4 211.869 214.644 213.311 215.599C214.621 216.317 216.032 216.83 217.497 217.122C224.306 218.671 231.422 218.163 237.942 215.662L238 213.434C234.725 213.808 232.246 210.218 232.03 206.931C231.814 203.643 233.008 200.42 233.113 197.127C233.218 193.834 231.63 189.987 228.386 189.401C228.953 190.541 229.161 191.826 228.979 193.086C228.798 194.346 228.237 195.521 227.371 196.455C226.505 197.389 225.375 198.037 224.132 198.313C222.888 198.589 221.59 198.48 220.41 198C216.655 196.475 215.291 191.903 212.39 189.075C210.597 187.481 208.372 186.453 205.996 186.119C203.62 185.785 201.198 186.16 199.035 187.198C196.899 188.287 195.025 189.826 193.543 191.71C192.061 193.594 191.006 195.776 190.45 198.107C189.569 201.49 189.831 205.621 192.593 207.764Z" fill="#696969"/>
<path d="M281.869 183.968L282 183.765C281.213 181.588 278.775 180.312 276.395 179.988C273.996 179.836 271.587 179.912 269.204 180.216C266.798 180.514 264.36 179.999 262.308 178.76C260.669 177.586 259.736 175.74 258.426 174.234C257.117 172.729 254.997 171.491 253.095 172.211C251.035 172.99 250.486 175.756 251.485 177.65C252.663 179.468 254.439 180.857 256.533 181.598C264.463 185.086 273.385 185.921 281.869 183.968Z" fill="#696969"/>
<path d="M254.218 191.526C253.598 191.971 253.177 192.634 253.045 193.376C252.912 194.118 253.077 194.882 253.506 195.507C253.934 196.133 254.593 196.571 255.343 196.732C256.094 196.892 256.879 196.761 257.534 196.367L258.188 197C259.058 195.473 259.417 193.427 258.304 192.06C257.81 191.493 257.119 191.125 256.365 191.027C255.611 190.928 254.846 191.106 254.218 191.526Z" fill="#696969"/>
<path d="M245.93 198.024C245.941 197.387 245.745 196.761 245.365 196.229C244.986 195.697 244.442 195.283 243.805 195.044C243.371 194.975 242.927 194.988 242.498 195.082C242.07 195.177 241.667 195.35 241.313 195.593C240.96 195.836 240.662 196.143 240.44 196.495C240.217 196.847 240.074 197.237 240.018 197.642C239.952 198.467 240.068 199.296 240.362 200.077C240.655 200.858 241.118 201.575 241.723 202.183C242.074 202.673 242.534 203.088 243.071 203.401C243.609 203.714 244.212 203.918 244.84 203.999C246.107 204.038 247.398 202.809 246.884 201.735L244.951 201.7C245.546 200.551 245.88 199.299 245.93 198.024Z" fill="#696969"/>
<path d="M211.988 179.836C212.623 180.339 213.258 180.843 213.893 181.346C214.994 182.276 216.182 183.101 217.443 183.809C219.648 185.004 222.242 185.314 224.676 184.675C225.878 184.34 226.975 183.714 227.864 182.856C228.754 181.998 229.408 180.935 229.767 179.764C230.527 176.967 229.288 174.062 228.075 171.422C227.798 170.666 227.342 169.986 226.743 169.436C226.436 169.171 226.045 169.017 225.636 169.001C225.226 168.986 224.824 169.109 224.497 169.35C224.259 169.639 224.101 169.982 224.038 170.347C223.975 170.713 224.008 171.087 224.135 171.437C224.395 172.132 224.515 172.871 224.486 173.611C224.365 174.341 223.581 175.031 222.89 174.729L222.78 177.215C219.482 175.583 217.737 171.242 214.067 170.814C213.243 170.718 212.408 170.845 211.653 171.181C210.898 171.517 210.252 172.049 209.785 172.72C209.318 173.39 209.049 174.173 209.006 174.983C208.963 175.793 209.149 176.599 209.543 177.313C210.18 178.303 211.011 179.16 211.988 179.836Z" fill="#696969"/>
<path d="M204.745 168.632C205.533 168.081 206.157 167.32 206.547 166.431C206.938 165.542 207.08 164.561 206.957 163.596C206.863 163.128 206.669 162.687 206.388 162.305C206.107 161.922 205.748 161.608 205.334 161.383C204.92 161.158 204.463 161.029 203.995 161.004C203.527 160.98 203.059 161.061 202.625 161.241C201.652 161.983 200.967 163.052 200.695 164.258C199.797 166.839 198.898 169.419 198 172L199.51 170.881C201.377 170.472 203.153 169.709 204.745 168.632Z" fill="#696969"/>
<path d="M221.309 153.986C221.599 153.621 221.805 153.196 221.913 152.741C222.021 152.287 222.029 151.815 221.935 151.358C221.841 150.9 221.648 150.469 221.369 150.095C221.091 149.72 220.734 149.411 220.324 149.19L218.296 149C217.835 149.117 217.408 149.34 217.049 149.652C216.689 149.964 216.408 150.356 216.228 150.797C216.047 151.237 215.972 151.714 216.009 152.189C216.046 152.664 216.193 153.123 216.439 153.531C216.686 153.938 217.024 154.282 217.427 154.535C217.83 154.788 218.286 154.942 218.76 154.987C219.233 155.031 219.71 154.964 220.153 154.79C220.596 154.616 220.992 154.341 221.309 153.986Z" fill="#696969"/>
<path d="M238.206 156.994C240 157.8 242.272 158.568 243.833 157.41C244.295 157.017 244.639 156.517 244.83 155.959C245.021 155.402 245.052 154.807 244.92 154.234C244.639 153.093 244.098 152.022 243.333 151.096C240.946 147.878 237.913 145.128 234.404 143L233.536 144.058C232.325 147.013 231.155 150.463 232.845 153.202C233.984 155.049 236.155 156.072 238.206 156.994Z" fill="#696969"/>
<path d="M251 160.04L254 161C253.706 160.637 253.258 160.349 252.719 160.177C252.181 160.005 251.579 159.957 251 160.04Z" fill="#696969"/>
<path d="M241.558 169.015L239.871 169.511C238.436 171.615 239.058 174.306 239.726 176.696C240.148 178.208 241.058 180.067 242.801 179.998C244.497 179.931 245.248 178.096 245.573 176.608C246.082 174.993 246.137 173.29 245.734 171.651C245.504 170.84 244.957 170.128 244.191 169.645C243.426 169.162 242.492 168.938 241.558 169.015Z" fill="#696969"/>
<path d="M218.212 162.624L219.141 163C219.359 162.969 219.561 162.866 219.715 162.708C219.868 162.55 219.966 162.345 219.993 162.126C220.019 161.906 219.973 161.684 219.861 161.494C219.749 161.303 219.578 161.155 219.374 161.073C219.169 160.99 218.944 160.978 218.732 161.037C218.52 161.096 218.333 161.224 218.201 161.401C218.069 161.577 217.998 161.793 218 162.014C218.002 162.235 218.077 162.45 218.212 162.624Z" fill="#696969"/>
<path d="M274.398 247.238C273.844 247.249 273.301 247.376 272.814 247.609C272.328 247.842 271.911 248.174 271.6 248.577C271.289 248.98 271.092 249.442 271.025 249.926C270.959 250.409 271.025 250.9 271.218 251.356C272.341 253.482 276.208 253.491 277.927 251.699C278.367 251.19 278.682 250.607 278.853 249.985C279.024 249.364 279.046 248.718 278.918 248.088C278.791 247.459 278.516 246.859 278.112 246.328C277.708 245.796 277.182 245.344 276.569 245L274.398 247.238Z" fill="#696969"/>
<path d="M327.733 303.043C327.258 303.147 326.812 303.327 326.424 303.574C326.035 303.821 325.711 304.129 325.47 304.48C325.229 304.831 325.077 305.217 325.023 305.617C324.968 306.017 325.012 306.422 325.152 306.807L328.549 307C329.699 306.528 330.85 306.056 332 305.584C331.93 305.186 331.764 304.803 331.51 304.458C331.257 304.114 330.921 303.814 330.523 303.577C330.125 303.34 329.674 303.171 329.194 303.079C328.715 302.988 328.218 302.975 327.733 303.043Z" fill="#696969"/>
<path d="M315.025 306.718C314.03 307.353 313.232 308.206 312.705 309.196C312.178 310.186 311.94 311.28 312.013 312.376C312.126 313.469 312.623 314.501 313.431 315.323C314.24 316.145 315.318 316.714 316.51 316.948C317.713 317.118 318.943 316.87 319.951 316.255C320.959 315.64 321.67 314.703 321.94 313.635C322.528 310.4 318.663 308.03 317.274 305L315.025 306.718Z" fill="#696969"/>
<path d="M436.357 285.215C436.681 287.618 434.535 289.722 434.455 292.146C434.361 295.021 437.463 297.258 440.3 296.976C441.708 296.73 443.041 296.157 444.193 295.303C445.345 294.45 446.285 293.338 446.939 292.055L447 291.786C445.618 290.21 444.236 288.633 442.854 287.057C441.157 285.122 439.358 282.918 439.424 280.335C439.457 279.061 439.954 277.827 439.926 276.553C439.86 275.637 439.657 274.736 439.325 273.88C438.951 272.754 438.442 271.484 437.326 271.103C435.929 270.627 434.52 271.876 433.853 273.203C433.253 274.427 432.962 275.781 433.004 277.145C433.047 278.51 433.422 279.843 434.096 281.026C434.903 282.409 436.143 283.625 436.357 285.215Z" fill="#696969"/>
<path d="M422.624 293.708C422.976 293.875 423.365 293.973 423.764 293.995C424.163 294.017 424.564 293.964 424.937 293.838C426.372 293.624 427.751 293.185 429.007 292.542C429.632 292.214 430.145 291.746 430.495 291.186C430.845 290.626 431.018 289.995 430.998 289.358C430.781 288.556 430.297 287.828 429.608 287.267C428.918 286.707 428.054 286.338 427.125 286.207C426.48 286.008 425.79 285.951 425.114 286.042C424.438 286.132 423.798 286.367 423.25 286.725C422.051 287.711 422.194 289.385 422.429 290.811L422.176 291.183C421.95 292.063 421.806 293.159 422.624 293.708Z" fill="#696969"/>
<path d="M644 397C643.458 396.333 642.916 395.667 642.374 395C641.631 395.905 641.907 396.832 644 397Z" fill="#696969"/>
<path d="M826 238.174C822.099 233.934 819.71 231.489 817.247 226.234C815.906 223.336 813.87 220.815 811.32 218.897C808.77 216.978 805.786 215.722 802.634 215.241C794.541 213.905 786.271 216.02 778.08 215.597C764.959 214.918 753.129 207.868 740.564 204.023C733.529 202.049 726.365 200.569 719.124 199.594C714.952 198.933 710.78 198.272 706.607 197.611C692.931 195.444 679.168 193.271 665.324 193.559C661.333 193.642 655.772 192.44 656.091 188.453C656.489 183.501 665.382 184.152 667.093 179.489C668.151 176.604 665.618 173.576 662.84 172.272C660.063 170.968 656.856 170.575 654.336 168.824C651.815 167.073 650.433 163.014 652.75 161C646.328 164.298 639.907 167.596 633.485 170.894C628.146 173.635 622.181 177.203 621.238 183.138C618.02 183.99 615.205 185.949 613.286 188.672C609.673 188.691 606.835 192.165 606.239 195.734C605.643 199.303 606.726 202.916 607.797 206.372C606.486 203.858 605.095 201.247 602.785 199.607C600.476 197.966 596.96 197.654 594.991 199.692C592.971 201.783 593.443 205.292 594.872 207.826C596.302 210.359 598.497 212.404 599.846 214.982C604.058 223.033 596.426 234.368 587.396 233.471C588.002 225.158 588.607 216.844 589.213 208.531C589.597 205.974 589.382 203.362 588.586 200.902C587.601 198.522 585.079 196.568 582.569 197.13C578.056 198.14 578.442 204.762 580.319 208.996C582.196 213.229 584.068 219.116 580.236 221.709C577.761 223.383 574.406 222.349 571.734 221.013C569.062 219.677 566.204 218.03 563.284 218.654C560.363 219.278 558.527 223.75 561.107 225.256C556.828 224.511 552.549 223.766 548.269 223.022C548.058 224.283 547.584 225.487 546.879 226.554C546.173 227.621 545.253 228.527 544.176 229.216C543.099 229.904 541.89 230.358 540.627 230.549C539.364 230.74 538.075 230.663 536.843 230.324C536.423 228.58 536.003 226.836 535.583 225.092C534.957 224.918 534.331 224.743 533.705 224.568C535.67 225.117 532.595 233.42 529.838 239.764C526.132 239.328 520.715 239.244 520.097 238.181C517.138 233.086 517.489 220.95 512.347 218.084C509.769 216.647 507.124 215.337 504.414 214.155C502.991 213.476 501.487 212.981 499.939 212.682C496.781 212.184 493.597 213.165 490.55 214.134C486.95 215.28 483.266 216.468 480.285 218.793C477.739 221.005 475.557 223.604 473.818 226.496C467.932 235.223 462.046 243.949 456.16 252.676C454.406 255.006 453.026 257.597 452.07 260.353C451.62 261.724 451.47 263.176 451.63 264.61C451.791 266.044 452.259 267.427 453.002 268.663C453.785 269.876 454.952 270.788 456.316 271.255C457.68 271.722 459.161 271.716 460.52 271.237C462.226 270.497 463.935 268.82 465.625 269.595C466.906 270.181 467.226 271.867 467.092 273.271C466.766 274.645 466.74 276.074 467.016 277.46C467.786 279.645 470.747 280.405 472.859 279.46C474.912 278.337 476.451 276.461 477.151 274.225C479.186 268.997 478.978 263.212 479.485 257.624C479.992 252.035 481.516 246.058 485.915 242.583C487.231 241.543 489.166 240.793 490.521 241.782C491.028 242.244 491.379 242.853 491.524 243.525C491.67 244.196 491.602 244.896 491.331 245.527C490.764 246.776 490.025 247.938 489.136 248.981C487.633 251.099 486.581 253.504 486.046 256.046C485.512 258.589 485.505 261.215 486.026 263.76L486.925 264.317C490.355 263.426 494.945 265.021 499.498 266.552C496.193 267.536 493.283 269.541 491.183 272.281C485.92 279.678 482.111 286.678 471.7 286.59C469.23 286.569 466.781 286.08 464.311 286.075C461.818 285.92 459.362 286.74 457.459 288.36C455.587 290.197 455.008 292.993 453.406 295.071C451.3 297.803 447.779 298.914 444.564 300.155C442.214 301.061 439.737 302.284 438.657 304.563C437.978 306.432 437.822 308.451 438.204 310.403C438.566 313.854 439.207 317.779 442.13 319.642C443.223 320.213 444.418 320.561 445.647 320.665C446.875 320.769 448.112 320.627 449.285 320.248C452.325 319.507 455.298 318.112 458.42 318.32C463.322 318.648 467.358 323.361 467.408 328.282C467.433 330.773 466.707 333.63 468.356 335.496C469.904 337.248 472.976 336.936 474.58 335.234C475.326 334.329 475.84 333.255 476.075 332.105C476.311 330.955 476.262 329.765 475.932 328.638C475.251 326.395 474.203 324.279 472.831 322.379C474.463 321.956 476.19 322.111 477.72 322.82C479.25 323.528 480.487 324.746 481.222 326.265C482.311 328.688 481.959 331.484 482.306 334.119C482.654 336.753 484.255 339.681 486.903 339.833C487.769 339.857 488.616 339.577 489.297 339.041C489.979 338.505 490.452 337.747 490.634 336.899C490.661 335.562 490.589 334.225 490.416 332.899C490.507 331.594 491.092 330.373 492.053 329.486C493.013 328.599 494.276 328.114 495.582 328.13C494.777 329.622 494.514 331.348 494.84 333.011C495.166 334.675 496.06 336.174 497.369 337.25C499.384 338.812 502.048 339.161 504.559 339.598C507.07 340.034 509.748 340.725 511.368 342.695C514.067 345.977 510.765 347.455 510.251 350.234C509.62 353.646 512.464 358.685 513.557 361.949C518.579 368.986 523.601 376.024 528.622 383.061C529.743 384.772 531.065 386.343 532.56 387.738C537.518 392.003 545.69 391.582 550.444 387.091C552.749 384.755 554.245 381.74 554.714 378.489C555.182 375.239 554.598 371.923 553.047 369.029C550.11 363.672 544.288 360.354 541.414 354.963C546.198 358.931 552.072 361.35 558.259 361.903C569.205 364.131 579.604 368.5 588.863 374.76C589.298 384.449 593.009 393.702 599.387 401C600.534 392.731 604.382 385.075 610.331 379.228C614.2 375.448 619.486 372.401 624.794 373.418C630.102 374.434 634.128 381.214 630.918 385.569C633.608 385.769 636.298 385.97 638.988 386.17C640.194 389.175 641.401 392.179 642.607 395.184C642.822 394.553 643.233 394.007 643.78 393.626C644.327 393.246 644.981 393.051 645.647 393.07C648.165 393.451 649.932 395.798 652.327 396.665C656.843 398.299 661.67 393.773 662.254 389C662.838 384.226 660.571 379.618 658.368 375.344C663.233 376.247 668.256 375.709 672.82 373.796C677.385 371.883 681.294 368.678 684.068 364.574C686.843 360.47 688.362 355.645 688.441 350.689C688.52 345.733 687.155 340.862 684.513 336.671C689.748 331.163 695.909 326.619 702.714 323.248C709.011 320.131 715.9 317.992 721.404 313.62C726.908 309.248 730.768 301.656 728.121 295.138C726.25 290.534 721.56 287.409 720.156 282.641C718.124 275.739 724.297 268.6 731.271 266.876C738.245 265.152 745.528 267.271 752.398 269.374C751.342 262.293 759.536 255.654 766.228 258.169C769.03 257.032 771.833 255.895 774.636 254.758C771.387 261.934 764.347 266.499 759.17 272.431C753.994 278.363 750.911 288.023 756.318 293.744C764.069 286.707 771.82 279.669 779.571 272.632C787.678 265.271 795.786 257.91 803.893 250.548C803.506 249.409 803.119 248.27 802.732 247.131C810.402 244.212 818.663 241.798 826 238.174Z" fill="#696969"/>
<path d="M424.469 332.493C424.161 332.929 423.997 333.448 424 333.979C424.003 334.51 424.172 335.027 424.484 335.46C424.894 335.802 425.412 335.993 425.949 336C426.486 336.007 427.009 335.83 427.428 335.499C428.247 334.812 428.886 333.941 429.292 332.961C429.688 333.714 430.311 334.33 431.075 334.723C431.839 335.116 432.707 335.269 433.562 335.16C435.271 334.907 436.889 334.243 438.274 333.228C439.372 332.595 440.342 331.768 441.135 330.788C441.527 330.294 441.796 329.718 441.921 329.104C442.046 328.49 442.023 327.855 441.854 327.252C441.443 326.326 440.804 325.515 439.995 324.892C437.977 323.06 435.96 321.228 433.943 319.396L433.259 319.195C432.904 318.822 432.475 318.525 431.999 318.319C431.524 318.114 431.011 318.006 430.491 318C429.972 317.995 429.456 318.093 428.976 318.288C428.496 318.483 428.061 318.772 427.697 319.136C426.445 320.515 426.439 322.575 426.631 324.414C426.822 326.253 427.12 328.212 426.287 329.869C425.81 330.819 425.001 331.572 424.469 332.493Z" fill="#696969"/>
<path d="M542.994 397.465C535.01 395.692 527.702 391.677 521.933 385.895C516.164 380.112 512.175 372.803 510.439 364.832C509.682 361.07 509.339 356.96 506.829 354.052C504.4 351.236 500.431 350.22 496.707 350.22C492.983 350.221 489.311 351.075 485.594 351.307C479.095 351.711 472.208 349.999 467.561 345.45C465.36 343.296 463.694 340.56 461.124 338.861C457.669 336.578 453.089 336.58 449.153 337.873C444.769 339.314 441.259 343.258 436.466 342.715C431.48 342.15 425.701 340.393 423.747 346.94C423.184 348.825 423.376 350.893 422.663 352.727C421.564 355.553 418.649 357.147 416.342 359.121C411.696 363.098 409.227 369.14 408.395 375.189C407.563 381.239 408.207 387.382 408.851 393.455C409.198 396.73 409.656 400.254 411.911 402.66C415.056 406.013 420.332 405.883 424.92 405.506C430.25 405.067 435.58 404.628 440.911 404.189C443.784 403.952 447.057 403.852 449.103 405.878C450.329 407.092 450.848 408.849 451.925 410.195C452.893 411.341 454.222 412.125 455.694 412.422C457.166 412.718 458.696 412.507 460.033 411.825C458.952 413.751 458.363 415.913 458.32 418.119C458.276 420.326 458.778 422.509 459.782 424.475C460.787 426.442 462.261 428.131 464.076 429.394C465.891 430.657 467.99 431.454 470.188 431.714L470.598 431.973C467.186 437.8 463.645 444.344 465.06 450.944C466.274 456.602 470.973 461.139 471.741 466.874C472.446 472.136 469.693 477.518 470.911 482.686C472.144 487.92 477.444 491.569 482.821 491.958C488.198 492.348 493.48 489.969 497.645 486.555C501.81 483.142 505.03 478.745 508.203 474.399C510.163 471.715 512.172 468.922 512.845 465.671C513.56 462.212 512.731 458.377 514.417 455.271C516.363 451.689 520.98 450.347 523.311 447.001C526.329 442.669 524.551 436.769 525.218 431.536C526.87 418.586 543.369 410.514 542.994 397.465Z" fill="#696969"/>
<path d="M540.588 441.792C540.13 443.812 538.201 445.142 536.363 446.159C534.526 447.176 532.504 448.201 531.568 450.056C530.609 451.955 531.047 454.219 531.549 456.28C532.593 460.569 533.822 464.809 535.237 469C537.979 463.918 540.374 458.662 542.404 453.268C543.264 451.26 543.795 449.131 543.977 446.961C544.061 445.874 543.912 444.782 543.54 443.756C543.167 442.729 542.579 441.79 541.814 441L540.588 441.792Z" fill="#696969"/>
<path d="M651.08 419.08C648.873 416.633 646.666 414.186 644.459 411.739C642.95 410.066 641.229 408.279 638.942 408L638 408.578C639.914 412.953 641.827 417.329 643.741 421.705C644.419 423.703 645.611 425.504 647.208 426.941C648.921 428.233 651.698 428.482 653.127 426.902C653.588 426.31 653.878 425.612 653.969 424.878C654.06 424.144 653.949 423.4 653.646 422.721C653.023 421.37 652.154 420.137 651.08 419.08Z" fill="#696969"/>
<path d="M672.671 423.816C673.519 423.526 674.297 423.064 674.953 422.46C675.61 421.857 676.132 421.125 676.485 420.311C677.181 418.68 677.64 416.962 677.85 415.205C678.233 412.918 678.617 410.631 679 408.344L678.498 408.217C678.011 407.986 677.456 407.938 676.935 408.08C676.414 408.223 675.963 408.547 675.666 408.992C675.101 409.9 674.673 410.885 674.396 411.915C674.254 412.43 673.996 412.906 673.641 413.308C673.286 413.711 672.843 414.029 672.346 414.239C670.545 414.775 668.839 412.893 666.959 412.966C666.199 413.062 665.495 413.408 664.96 413.949C664.426 414.49 664.093 415.193 664.016 415.944C663.907 417.461 664.343 418.966 665.247 420.198C666.851 422.652 669.826 424.624 672.671 423.816Z" fill="#696969"/>
<path d="M685.286 428L690 414C688.09 415.562 686.626 417.719 685.789 420.206C684.951 422.693 684.776 425.402 685.286 428Z" fill="#696969"/>
<path d="M711.82 417L710.746 417.046C710.265 418.006 710.01 419.064 710 420.14C709.99 421.215 710.225 422.279 710.687 423.248C711.63 425.179 713.001 426.864 714.694 428.171C717.318 430.361 720.313 432.052 723.534 433.161C728.257 434.554 733.14 435.314 738.059 435.422C740.871 435.609 743.683 435.795 746.495 435.98C747.834 436.069 749.566 435.897 749.939 434.594C750.246 433.517 749.339 432.506 748.492 431.783C741.052 425.454 732.034 421.317 722.424 419.822C718.779 419.262 714.911 419.032 711.82 417Z" fill="#696969"/>
<path d="M741.115 453.701C739.154 451.776 737.192 449.851 735.23 447.926C733.322 446.054 730.463 444.07 728.276 445.599C727.019 446.477 726.632 448.191 725.567 449.299C724.918 449.887 724.134 450.302 723.287 450.506C722.439 450.71 721.555 450.697 720.714 450.468C719.038 449.991 717.454 449.232 716.028 448.221L711.16 445.164C709.48 444.109 707.8 443.055 706.12 442L702.329 445.728C702.494 443.893 700.076 442.701 698.403 443.427C697.607 443.878 696.923 444.505 696.4 445.261C695.877 446.018 695.529 446.883 695.383 447.794C695.104 449.615 694.618 451.397 693.934 453.105C692.009 456.833 687.335 457.938 683.224 458.562C679.112 459.187 674.454 460.066 672.253 463.635C670.42 466.608 670.969 470.425 671.582 473.874L673.899 486.921C674.009 488.502 674.635 490.001 675.68 491.181C677.716 492.999 680.869 491.894 683.354 490.785C688.547 488.257 694.121 486.623 699.845 485.949C705.62 485.295 711.432 486.801 716.185 490.183C719.131 492.453 721.378 495.596 724.5 497.612C726.651 498.921 729.068 499.716 731.568 499.937C734.068 500.158 736.585 499.798 738.928 498.886C743.622 496.994 747.507 493.489 749.9 488.985C752.025 485.015 753.091 480.552 752.994 476.038C752.897 471.524 751.64 467.113 749.346 463.239C747.005 459.726 744.24 456.522 741.115 453.701Z" fill="#696969"/>
<path d="M735.822 506.937C735.333 507.539 735.046 508.284 735.005 509.062C734.964 509.841 735.17 510.612 735.594 511.264C736.483 512.554 737.838 513.437 739.366 513.722C740.879 513.997 742.422 514.068 743.953 513.935L744 512.776C743.592 510.744 742.666 508.854 741.313 507.295C739.835 505.873 737.223 505.436 735.822 506.937Z" fill="#696969"/>
<path d="M786.663 508.255L786.01 508C784.457 510.501 782.903 513.001 781.35 515.502C780.514 516.848 779.642 518.463 780.152 519.984C780.755 521.782 782.986 522.31 784.719 521.834C786.042 521.451 787.235 520.672 788.158 519.59C789.081 518.508 789.696 517.167 789.931 515.725C790.122 514.276 789.915 512.798 789.335 511.472C788.755 510.146 787.826 509.028 786.663 508.255Z" fill="#696969"/>
<path d="M799.468 499.668L794.394 496C794.326 497.702 794.258 499.404 794.19 501.106L794 501.109C795.17 502.042 796.275 503.041 797.307 504.1C798.495 505.018 800.487 505.438 801.503 504.362C801.806 503.977 801.979 503.519 801.998 503.045C802.018 502.572 801.883 502.103 801.612 501.699C801.054 500.898 800.325 500.208 799.468 499.668Z" fill="#696969"/>
<path d="M715.34 338.236C713.338 338.174 711.123 338.053 709.572 339.31C709.062 339.762 708.615 340.28 708.242 340.849L707.695 341.609C706.877 342.672 706.163 343.811 705.564 345.009C705.251 345.571 705.064 346.193 705.014 346.833C704.964 347.472 705.052 348.116 705.274 348.718C705.403 349.007 705.593 349.263 705.832 349.47C706.071 349.677 706.354 349.83 706.659 349.917C706.964 350.003 707.284 350.023 707.598 349.973C707.911 349.924 708.21 349.806 708.473 349.63C709.328 348.843 709.128 347.417 709.775 346.454C710.06 346.091 710.425 345.799 710.843 345.601C711.261 345.403 711.72 345.304 712.183 345.311C713.107 345.334 714.027 345.438 714.933 345.62C717.441 345.961 719.996 345.582 722.295 344.529C724.594 343.475 726.541 341.791 727.907 339.674C729.272 337.558 729.998 335.098 730 332.585C730.002 330.072 729.279 327.611 727.916 325.492L727.755 325.004C726.37 324.952 725.009 325.383 723.911 326.223C722.813 327.063 722.046 328.259 721.745 329.602C721.297 331.916 722.246 334.605 720.833 336.498C719.641 338.094 717.341 338.298 715.34 338.236Z" fill="#696969"/>
<path d="M732.317 314.027L732.071 314C730.626 314.336 729.239 314.993 727.974 315.941C727.559 316.186 727.227 316.614 727.041 317.145C726.986 317.427 726.987 317.722 727.043 318.003C727.1 318.284 727.211 318.543 727.367 318.756C727.68 319.178 728.047 319.529 728.453 319.796C729.057 320.308 729.724 320.688 730.427 320.919C730.78 321.03 731.148 321.027 731.5 320.911C731.852 320.796 732.176 320.571 732.442 320.257C732.692 319.82 732.864 319.319 732.946 318.789C733.027 318.259 733.017 317.712 732.915 317.188C732.8 316.112 732.599 315.053 732.317 314.027Z" fill="#696969"/>
<path d="M702.383 338.791C702.878 338.021 703.229 337.173 703.421 336.285C703.614 335.596 703.807 334.906 704 334.217L701.938 333C700.953 333.498 700.045 334.127 699.239 334.869C698.838 335.243 698.521 335.693 698.308 336.192C698.095 336.691 697.99 337.227 698.001 337.767C698.029 338.306 698.245 338.82 698.612 339.226C698.98 339.631 699.478 339.903 700.025 339.999C700.492 340.013 700.955 339.908 701.368 339.697C701.781 339.485 702.131 339.173 702.383 338.791Z" fill="#696969"/>
<path d="M489.648 157.153C488.699 157.67 488.968 158.92 489.352 159.838C489.794 160.892 490.235 161.946 490.677 163L491.295 160.954C491.838 160.161 492.077 159.236 491.978 158.316C491.764 157.417 490.539 156.667 489.648 157.153Z" fill="#696969"/>
<path d="M489 426C493.418 426 497 422.418 497 418C497 413.582 493.418 410 489 410C484.582 410 481 413.582 481 418C481 422.418 484.582 426 489 426Z" fill="#40DC8B"/>
<path d="M862.756 293.705H755.301V303.28H862.756V293.705Z" fill="#3F3D56"/>
<path d="M862.756 328.979H755.301V338.554H862.756V328.979Z" fill="#3F3D56"/>
<path d="M862.756 360.579H755.301V370.154H862.756V360.579Z" fill="#3F3D56"/>
<path d="M714.883 298.493C714.883 296.022 715.616 293.607 716.988 291.552C718.361 289.498 720.312 287.897 722.595 286.951C724.878 286.005 727.389 285.758 729.813 286.24C732.236 286.722 734.462 287.912 736.209 289.659C737.957 291.406 739.146 293.632 739.628 296.056C740.11 298.479 739.863 300.991 738.917 303.274C737.972 305.556 736.371 307.507 734.316 308.88C732.262 310.253 729.846 310.986 727.376 310.986C724.063 310.982 720.888 309.665 718.546 307.322C716.204 304.98 714.887 301.805 714.883 298.493Z" fill="#40DC8B"/>
<path d="M714.883 333.767C714.883 331.296 715.615 328.881 716.988 326.826C718.361 324.772 720.312 323.17 722.595 322.225C724.878 321.279 727.389 321.032 729.813 321.514C732.236 321.996 734.462 323.186 736.209 324.933C737.957 326.68 739.146 328.906 739.628 331.329C740.11 333.753 739.863 336.265 738.917 338.548C737.972 340.83 736.371 342.781 734.316 344.154C732.262 345.527 729.847 346.26 727.376 346.26C724.064 346.256 720.888 344.938 718.546 342.596C716.204 340.254 714.887 337.079 714.883 333.767Z" fill="#40DC8B"/>
<path d="M714.883 365.366C714.883 362.895 715.616 360.48 716.988 358.425C718.361 356.371 720.312 354.77 722.595 353.824C724.878 352.878 727.389 352.631 729.813 353.113C732.236 353.595 734.462 354.785 736.209 356.532C737.957 358.279 739.146 360.505 739.628 362.929C740.11 365.352 739.863 367.864 738.917 370.147C737.972 372.429 736.371 374.381 734.316 375.753C732.262 377.126 729.847 377.859 727.376 377.859C724.064 377.855 720.888 376.538 718.546 374.196C716.204 371.853 714.887 368.678 714.883 365.366Z" fill="#40DC8B"/>
<path d="M609.579 382.592L608 381.366L648.449 329.284H701.35V331.284H649.428L609.579 382.592Z" fill="#3F3D56"/>
<path d="M189.456 41.7051H82V51.2803H189.456V41.7051Z" fill="#3F3D56"/>
<path d="M189.456 76.979H82V86.5543H189.456V76.979Z" fill="#3F3D56"/>
<path d="M189.456 108.579H82V118.154H189.456V108.579Z" fill="#3F3D56"/>
<path d="M217.382 58.9857C214.911 58.9857 212.495 58.253 210.441 56.8803C208.386 55.5075 206.785 53.5564 205.84 51.2736C204.894 48.9909 204.647 46.479 205.129 44.0556C205.611 41.6322 206.801 39.4062 208.548 37.6591C210.295 35.9119 212.521 34.7221 214.944 34.2401C217.368 33.758 219.88 34.0054 222.162 34.951C224.445 35.8965 226.396 37.4978 227.769 39.5522C229.142 41.6066 229.874 44.022 229.874 46.4928C229.874 48.1334 229.551 49.7579 228.923 51.2736C228.296 52.7893 227.375 54.1665 226.215 55.3266C225.055 56.4867 223.678 57.4069 222.162 58.0347C220.647 58.6625 219.022 58.9857 217.382 58.9857Z" fill="#40DC8B"/>
<path d="M217.381 94.2596C214.911 94.2596 212.495 93.5269 210.441 92.1541C208.386 90.7814 206.785 88.8303 205.84 86.5475C204.894 84.2648 204.647 81.7529 205.129 79.3295C205.611 76.9061 206.801 74.6801 208.548 72.933C210.295 71.1858 212.521 69.996 214.944 69.514C217.368 69.0319 219.88 69.2794 222.162 70.2249C224.445 71.1705 226.396 72.7717 227.769 74.8261C229.142 76.8806 229.874 79.2959 229.874 81.7668C229.874 83.4074 229.551 85.0319 228.923 86.5476C228.296 88.0633 227.375 89.4405 226.215 90.6005C225.055 91.7606 223.678 92.6808 222.162 93.3086C220.647 93.9364 219.022 94.2596 217.381 94.2596Z" fill="#40DC8B"/>
<path d="M217.381 125.859C214.911 125.859 212.495 125.126 210.441 123.753C208.386 122.381 206.785 120.429 205.84 118.147C204.894 115.864 204.647 113.352 205.129 110.929C205.611 108.505 206.801 106.279 208.548 104.532C210.295 102.785 212.521 101.595 214.944 101.113C217.368 100.631 219.88 100.878 222.162 101.824C224.445 102.77 226.396 104.371 227.769 106.425C229.142 108.48 229.874 110.895 229.874 113.366C229.874 115.006 229.551 116.631 228.923 118.147C228.296 119.662 227.375 121.04 226.215 122.2C225.055 123.36 223.678 124.28 222.162 124.908C220.647 125.536 219.022 125.859 217.381 125.859Z" fill="#40DC8B"/>
<path d="M335.179 130.592L295.329 79.2842H243.408V77.2842H296.308L296.608 77.6712L336.758 129.366L335.179 130.592Z" fill="#3F3D56"/>
<path d="M337.5 141C341.642 141 345 137.418 345 133C345 128.582 341.642 125 337.5 125C333.358 125 330 128.582 330 133C330 137.418 333.358 141 337.5 141Z" fill="#40DC8B"/>
<path d="M606.5 392C610.642 392 614 388.642 614 384.5C614 380.358 610.642 377 606.5 377C602.358 377 599 380.358 599 384.5C599 388.642 602.358 392 606.5 392Z" fill="#40DC8B"/>
</g>
<defs>
<linearGradient id="paint0_linear_68_11919" x1="915" y1="625.5" x2="602" y2="270" gradientUnits="userSpaceOnUse">
<stop stop-color="#E3F5DC" stop-opacity="0.8"/>
<stop offset="1" stop-color="#E3F5DC" stop-opacity="0.04"/>
</linearGradient>
<clipPath id="clip0_68_11919">
<rect width="925" height="631" fill="white"/>
</clipPath>
</defs>
</svg>
