<svg width="1221" height="631" viewBox="0 0 1221 631" fill="none" xmlns="http://www.w3.org/2000/svg">
<g clip-path="url(#clip0_68_12043)">
<rect width="1221" height="631" fill="white"/>
<path d="M1155.7 -33C1196.87 -33 1230.24 -21.7884 1230.24 -7.95853L1230.24 640.957C1230.24 654.785 1196.87 666 1155.71 666L74.539 666C33.3811 666 0.000154855 654.785 0.000154855 640.957L0.000154855 -7.95853C0.000154855 -21.7884 33.3811 -33 74.539 -33L1155.7 -33Z" fill="url(#paint0_linear_68_12043)"/>
<g clip-path="url(#clip1_68_12043)">
<path d="M977.358 307.902L1227.21 372.249C1235.68 374.421 1244.67 373.143 1252.21 368.694C1259.74 364.245 1265.2 356.989 1267.39 348.518L1342.95 55.0557C1345.13 46.5795 1343.85 37.5877 1339.4 30.0529C1334.95 22.5181 1327.7 17.0557 1319.23 14.8641L1086.78 -45L1027.29 -18.363L953.63 267.711C951.458 276.187 952.736 285.179 957.184 292.713C961.633 300.248 968.888 305.711 977.358 307.902Z" fill="#F2F2F2"/>
<path d="M1316.86 24.0651C1322.89 25.6258 1328.05 29.5157 1331.22 34.8814C1334.39 40.2471 1335.3 46.6503 1333.75 52.6864L1258.19 346.149C1256.63 352.181 1252.74 357.348 1247.38 360.517C1242.01 363.685 1235.61 364.595 1229.57 363.048L979.727 298.701C973.695 297.141 968.528 293.251 965.36 287.885C962.193 282.519 961.282 276.116 962.829 270.08L1035.35 -11.561L1087.63 -34.9702L1316.86 24.0651Z" fill="white"/>
<path d="M1048.27 233.761L1162.02 263.057C1162.72 263.237 1163.45 263.278 1164.16 263.177C1164.87 263.076 1165.56 262.835 1166.18 262.468C1166.8 262.101 1167.35 261.615 1167.78 261.038C1168.22 260.461 1168.53 259.805 1168.71 259.106C1168.89 258.407 1168.93 257.679 1168.83 256.965C1168.73 256.25 1168.49 255.562 1168.12 254.941C1167.75 254.319 1167.27 253.776 1166.69 253.342C1166.12 252.909 1165.46 252.593 1164.76 252.413L1051.01 223.116C1050.31 222.937 1049.58 222.896 1048.87 222.997C1048.15 223.098 1047.46 223.339 1046.84 223.706C1046.22 224.073 1045.68 224.559 1045.24 225.136C1044.81 225.713 1044.5 226.369 1044.32 227.068C1044.14 227.767 1044.09 228.495 1044.2 229.209C1044.3 229.924 1044.54 230.612 1044.9 231.233C1045.27 231.855 1045.76 232.398 1046.33 232.832C1046.91 233.265 1047.57 233.581 1048.27 233.761Z" fill="#CCCCCC"/>
<path d="M1021.69 246.071L1157.39 281.021C1158.8 281.384 1160.3 281.172 1161.56 280.431C1162.81 279.69 1163.72 278.481 1164.08 277.069C1164.45 275.658 1164.24 274.159 1163.49 272.904C1162.75 271.649 1161.54 270.74 1160.13 270.376L1024.43 235.426C1023.02 235.064 1021.52 235.277 1020.27 236.019C1019.01 236.76 1018.1 237.969 1017.74 239.379C1017.38 240.79 1017.59 242.287 1018.33 243.542C1019.07 244.797 1020.28 245.707 1021.69 246.071Z" fill="#CCCCCC"/>
<path d="M1208.45 298.342C1197.72 298.342 1189.02 289.645 1189.02 278.916C1189.02 268.188 1197.72 259.491 1208.45 259.491C1219.17 259.491 1227.87 268.188 1227.87 278.916C1227.87 289.645 1219.17 298.342 1208.45 298.342Z" fill="#E6E6E6"/>
<path d="M1060.36 182.923L1211.43 221.817C1215.8 222.936 1220.43 222.277 1224.31 219.985C1228.19 217.693 1231.01 213.954 1232.14 209.59L1263.8 86.5852C1264.91 82.2185 1264.26 77.5864 1261.96 73.7051C1259.67 69.8237 1255.93 67.0101 1251.57 65.8815L1100.5 26.9877C1096.13 25.8689 1091.5 26.5279 1087.62 28.8201C1083.74 31.1123 1080.92 34.8505 1079.79 39.2146L1048.13 162.22C1047.02 166.586 1047.68 171.219 1049.97 175.1C1052.26 178.981 1056 181.795 1060.36 182.923Z" fill="white"/>
<path d="M1060.36 182.923L1211.43 221.817C1215.8 222.936 1220.43 222.277 1224.31 219.985C1228.19 217.693 1231.01 213.954 1232.14 209.59L1263.8 86.5852C1264.91 82.2185 1264.26 77.5864 1261.96 73.7051C1259.67 69.8237 1255.93 67.0101 1251.57 65.8815L1100.5 26.9877C1096.13 25.8689 1091.5 26.5279 1087.62 28.8201C1083.74 31.1123 1080.92 34.8505 1079.79 39.2146L1048.13 162.22C1047.02 166.586 1047.68 171.219 1049.97 175.1C1052.26 178.981 1056 181.795 1060.36 182.923ZM1251.07 67.8185C1254.92 68.8144 1258.22 71.297 1260.24 74.7218C1262.26 78.1465 1262.85 82.2336 1261.86 86.0865L1230.2 209.092C1229.2 212.942 1226.72 216.241 1223.3 218.263C1219.87 220.286 1215.79 220.867 1211.93 219.88L1060.86 180.986C1057.01 179.991 1053.71 177.508 1051.69 174.083C1049.67 170.658 1049.08 166.571 1050.07 162.718L1081.73 39.7132C1082.73 35.8626 1085.21 32.5642 1088.63 30.5416C1092.06 28.5191 1096.14 27.9377 1100 28.9248L1251.07 67.8185Z" fill="#E6E6E6"/>
<path d="M1108.16 68.347L1184.41 87.9762C1185.07 88.1623 1185.78 88.0884 1186.4 87.7693C1187.01 87.4503 1187.48 86.9099 1187.71 86.2575C1187.82 85.9166 1187.86 85.5574 1187.82 85.2019C1187.79 84.8463 1187.68 84.5017 1187.51 84.1892C1187.33 83.8767 1187.1 83.6028 1186.81 83.3842C1186.53 83.1656 1186.21 83.0069 1185.86 82.9178L1108.25 62.9365C1105.11 64.5253 1105.94 67.7747 1108.16 68.347Z" fill="#F2F2F2"/>
<path d="M1104.72 81.7225L1180.96 101.352C1181.63 101.538 1182.34 101.464 1182.96 101.145C1183.57 100.826 1184.04 100.285 1184.27 99.6329C1184.38 99.2921 1184.42 98.9329 1184.38 98.5773C1184.35 98.2217 1184.24 97.8772 1184.06 97.5647C1183.89 97.2522 1183.66 96.9782 1183.37 96.7596C1183.09 96.5411 1182.77 96.3824 1182.42 96.2933L1104.81 76.312C1101.67 77.9008 1102.5 81.1502 1104.72 81.7225Z" fill="#F2F2F2"/>
<path d="M1195.49 113.211L1218.75 119.202C1219.51 119.396 1220.32 119.282 1221 118.883C1221.67 118.484 1222.16 117.833 1222.36 117.073L1229.43 89.6102C1229.62 88.8502 1229.51 88.0439 1229.11 87.3683C1228.71 86.6926 1228.06 86.2029 1227.3 86.0066L1204.03 80.0159C1203.27 79.8214 1202.46 79.9361 1201.79 80.3351C1201.11 80.7341 1200.62 81.3846 1200.43 82.1441L1193.36 109.607C1193.16 110.367 1193.28 111.174 1193.68 111.849C1194.08 112.525 1194.73 113.014 1195.49 113.211Z" fill="#E6E6E6"/>
<path d="M1097.89 109.166L1214.26 139.124C1214.92 139.31 1215.63 139.236 1216.25 138.917C1216.86 138.598 1217.33 138.058 1217.56 137.405C1217.67 137.064 1217.71 136.705 1217.67 136.35C1217.64 135.994 1217.53 135.649 1217.36 135.337C1217.18 135.024 1216.95 134.75 1216.66 134.532C1216.38 134.313 1216.06 134.155 1215.71 134.065L1097.98 103.755C1094.84 105.344 1095.67 108.594 1097.89 109.166Z" fill="#F2F2F2"/>
<path d="M1094.45 122.546L1210.81 152.504C1211.48 152.69 1212.19 152.616 1212.8 152.297C1213.42 151.978 1213.89 151.437 1214.12 150.785C1214.23 150.444 1214.26 150.085 1214.23 149.729C1214.19 149.374 1214.09 149.029 1213.91 148.717C1213.74 148.404 1213.5 148.13 1213.22 147.912C1212.94 147.693 1212.61 147.534 1212.27 147.445L1094.53 117.135C1091.4 118.724 1092.22 121.974 1094.45 122.546Z" fill="#F2F2F2"/>
<path d="M1091.01 135.917L1207.37 165.874C1208.04 166.06 1208.75 165.986 1209.36 165.667C1209.98 165.348 1210.45 164.808 1210.68 164.156C1210.79 163.815 1210.82 163.456 1210.79 163.1C1210.75 162.744 1210.64 162.4 1210.47 162.087C1210.3 161.775 1210.06 161.501 1209.78 161.282C1209.5 161.064 1209.17 160.905 1208.83 160.816L1091.09 130.506C1087.96 132.095 1088.78 135.344 1091.01 135.917Z" fill="#F2F2F2"/>
<path d="M1087.56 149.295L1203.93 179.253C1204.59 179.439 1205.31 179.365 1205.92 179.046C1206.53 178.727 1207 178.186 1207.24 177.534C1207.34 177.193 1207.38 176.834 1207.34 176.478C1207.31 176.123 1207.2 175.778 1207.03 175.466C1206.85 175.153 1206.62 174.879 1206.34 174.661C1206.05 174.442 1205.73 174.283 1205.38 174.194L1087.65 143.884C1084.51 145.473 1085.34 148.723 1087.56 149.295Z" fill="#F2F2F2"/>
<path d="M1084.12 162.667L1200.49 192.625C1201.15 192.811 1201.86 192.737 1202.48 192.418C1203.09 192.099 1203.56 191.558 1203.79 190.906C1203.9 190.565 1203.94 190.206 1203.9 189.85C1203.87 189.495 1203.76 189.15 1203.59 188.838C1203.41 188.525 1203.18 188.251 1202.89 188.033C1202.61 187.814 1202.29 187.655 1201.94 187.566L1084.21 157.256C1081.07 158.845 1081.9 162.095 1084.12 162.667Z" fill="#F2F2F2"/>
<path d="M1207.01 285.726C1207.43 285.836 1207.88 285.805 1208.29 285.638L1208.31 285.628L1213.6 283.384C1213.85 283.28 1214.07 283.129 1214.26 282.939C1214.44 282.749 1214.59 282.523 1214.69 282.276C1214.79 282.029 1214.84 281.764 1214.84 281.498C1214.84 281.231 1214.78 280.967 1214.68 280.722C1214.57 280.477 1214.42 280.254 1214.23 280.067C1214.04 279.881 1213.82 279.733 1213.57 279.634C1213.32 279.534 1213.06 279.484 1212.79 279.487C1212.52 279.49 1212.26 279.545 1212.01 279.65L1208.59 281.109L1204.09 270.538C1203.99 270.293 1203.84 270.071 1203.65 269.884C1203.46 269.698 1203.23 269.551 1202.99 269.451C1202.74 269.351 1202.47 269.301 1202.21 269.304C1201.94 269.306 1201.68 269.361 1201.43 269.465L1201.46 269.535L1201.43 269.465C1200.94 269.676 1200.55 270.075 1200.35 270.574C1200.14 271.073 1200.15 271.631 1200.36 272.126L1205.65 284.554C1205.77 284.841 1205.95 285.095 1206.19 285.298C1206.43 285.501 1206.71 285.646 1207.01 285.723L1207.01 285.726Z" fill="white"/>
<path d="M881.526 419.733H1139.53C1148.27 419.723 1156.66 416.243 1162.85 410.056C1169.04 403.868 1172.52 395.479 1172.53 386.729V83.6929C1172.52 74.9428 1169.04 66.5538 1162.85 60.3665C1156.66 54.1792 1148.27 50.6988 1139.53 50.689H899.499L848.526 91.3227V386.729C848.536 395.479 852.016 403.868 858.202 410.056C864.389 416.243 872.777 419.723 881.526 419.733Z" fill="#E6E6E6"/>
<path d="M1139.53 60.1899C1145.76 60.197 1151.73 62.6754 1156.13 67.0815C1160.54 71.4876 1163.02 77.4616 1163.03 83.6928V386.729C1163.02 392.96 1160.54 398.934 1156.13 403.34C1151.73 407.746 1145.76 410.225 1139.53 410.232H881.526C875.296 410.225 869.322 407.746 864.917 403.34C860.511 398.934 858.033 392.96 858.026 386.729V95.8998L902.822 60.1899H1139.53Z" fill="white"/>
<path d="M931.707 148.305H1049.17C1050.63 148.305 1052.03 147.726 1053.06 146.695C1054.09 145.665 1054.67 144.267 1054.67 142.809C1054.67 141.351 1054.09 139.953 1053.06 138.923C1052.03 137.892 1050.63 137.313 1049.17 137.313H931.707C930.25 137.313 928.852 137.892 927.821 138.923C926.791 139.953 926.212 141.351 926.212 142.809C926.212 144.267 926.791 145.665 927.821 146.695C928.852 147.726 930.25 148.305 931.707 148.305Z" fill="#40DC8B"/>
<path d="M909.038 166.854H1049.17C1050.63 166.852 1052.02 166.272 1053.05 165.242C1054.08 164.211 1054.66 162.814 1054.66 161.358C1054.66 159.901 1054.08 158.505 1053.05 157.474C1052.02 156.444 1050.63 155.864 1049.17 155.862H909.038C908.316 155.861 907.601 156.002 906.933 156.278C906.265 156.554 905.659 156.958 905.148 157.469C904.637 157.979 904.231 158.586 903.955 159.253C903.678 159.92 903.536 160.635 903.536 161.358C903.536 162.08 903.678 162.796 903.955 163.463C904.231 164.13 904.637 164.736 905.148 165.247C905.659 165.757 906.265 166.162 906.933 166.438C907.601 166.713 908.316 166.855 909.038 166.854Z" fill="#40DC8B"/>
<path d="M931.705 220.438H1049.17C1050.62 220.438 1052.02 221.016 1053.05 222.047C1054.08 223.078 1054.66 224.476 1054.66 225.933C1054.66 227.391 1054.08 228.789 1053.05 229.819C1052.02 230.85 1050.62 231.429 1049.17 231.429H931.705C930.248 231.429 928.85 230.85 927.82 229.819C926.789 228.789 926.21 227.391 926.21 225.933C926.21 224.476 926.789 223.078 927.82 222.047C928.85 221.016 930.248 220.438 931.705 220.438Z" fill="#CCCCCC"/>
<path d="M909.036 238.99H1049.17C1050.62 238.99 1052.02 239.569 1053.05 240.599C1054.08 241.63 1054.66 243.028 1054.66 244.485C1054.66 245.943 1054.08 247.341 1053.05 248.371C1052.02 249.402 1050.62 249.981 1049.17 249.981H909.036C907.578 249.981 906.181 249.402 905.15 248.371C904.12 247.341 903.541 245.943 903.541 244.485C903.541 243.028 904.12 241.63 905.15 240.599C906.181 239.569 907.578 238.99 909.036 238.99Z" fill="#CCCCCC"/>
<path d="M931.707 314.56H1049.17C1050.63 314.56 1052.03 313.981 1053.06 312.95C1054.09 311.919 1054.67 310.522 1054.67 309.064C1054.67 307.606 1054.09 306.208 1053.06 305.178C1052.03 304.147 1050.63 303.568 1049.17 303.568H931.707C930.25 303.568 928.852 304.147 927.821 305.178C926.791 306.208 926.212 307.606 926.212 309.064C926.212 310.522 926.791 311.919 927.821 312.95C928.852 313.981 930.25 314.56 931.707 314.56Z" fill="#CCCCCC"/>
<path d="M909.038 333.109H1049.17C1050.63 333.107 1052.02 332.527 1053.05 331.497C1054.08 330.466 1054.66 329.07 1054.66 327.613C1054.66 326.157 1054.08 324.76 1053.05 323.73C1052.02 322.699 1050.63 322.119 1049.17 322.117H909.038C908.316 322.116 907.601 322.258 906.933 322.533C906.265 322.809 905.659 323.214 905.148 323.724C904.637 324.235 904.231 324.841 903.955 325.508C903.678 326.176 903.536 326.891 903.536 327.613C903.536 328.336 903.678 329.051 903.955 329.718C904.231 330.385 904.637 330.992 905.148 331.502C905.659 332.013 906.265 332.417 906.933 332.693C907.601 332.969 908.316 333.11 909.038 333.109Z" fill="#CCCCCC"/>
<path d="M1098.08 171.509C1087.36 171.509 1078.66 162.812 1078.66 152.084C1078.66 141.355 1087.36 132.658 1098.08 132.658C1108.81 132.658 1117.51 141.355 1117.51 152.084C1117.51 162.812 1108.81 171.509 1098.08 171.509Z" fill="#40DC8B"/>
<path d="M1100.01 159.494C1100.45 159.494 1100.87 159.353 1101.22 159.091L1101.24 159.075L1105.81 155.582C1106.02 155.421 1106.2 155.218 1106.33 154.988C1106.47 154.757 1106.55 154.502 1106.59 154.238C1106.62 153.973 1106.61 153.704 1106.54 153.446C1106.47 153.189 1106.35 152.947 1106.19 152.735C1106.02 152.524 1105.82 152.346 1105.59 152.213C1105.36 152.079 1105.1 151.993 1104.84 151.958C1104.58 151.923 1104.31 151.941 1104.05 152.011C1103.79 152.08 1103.55 152.2 1103.34 152.362L1100.38 154.63L1093.4 145.514C1093.23 145.302 1093.03 145.125 1092.8 144.992C1092.57 144.859 1092.32 144.772 1092.05 144.737C1091.79 144.702 1091.52 144.72 1091.26 144.789C1091.01 144.857 1090.76 144.976 1090.55 145.138L1090.6 145.199L1090.55 145.139C1090.12 145.466 1089.85 145.95 1089.78 146.483C1089.71 147.016 1089.85 147.555 1090.18 147.982L1098.39 158.7C1098.58 158.947 1098.83 159.147 1099.11 159.284C1099.39 159.421 1099.7 159.492 1100.01 159.491L1100.01 159.494Z" fill="white"/>
<path d="M1076.67 235.209C1076.66 237.761 1077.17 240.287 1078.14 242.645C1079.12 245.002 1080.55 247.144 1082.35 248.949C1084.15 250.753 1086.3 252.185 1088.65 253.161C1091.01 254.138 1093.53 254.641 1096.09 254.642C1096.25 254.645 1096.42 254.638 1096.59 254.622C1100.4 254.524 1104.11 253.301 1107.24 251.108C1110.37 248.914 1112.78 245.847 1114.17 242.289C1115.57 238.732 1115.88 234.842 1115.07 231.107C1114.27 227.372 1112.38 223.958 1109.64 221.292C1106.91 218.625 1103.44 216.825 1099.69 216.116C1095.94 215.408 1092.06 215.822 1088.54 217.308C1085.02 218.793 1082.01 221.284 1079.9 224.468C1077.79 227.652 1076.66 231.388 1076.67 235.209Z" fill="#CCCCCC"/>
<path d="M1098.08 337.764C1087.36 337.764 1078.66 329.067 1078.66 318.339C1078.66 307.61 1087.36 298.913 1098.08 298.913C1108.81 298.913 1117.51 307.61 1117.51 318.339C1117.51 329.067 1108.81 337.764 1098.08 337.764Z" fill="#CCCCCC"/>
<path d="M849.518 92.6307H889.447C892.362 92.6307 895.157 91.4726 897.218 89.4112C899.28 87.3497 900.437 84.5538 900.437 81.6386V52.144C900.438 52.0149 900.401 51.8884 900.333 51.779C900.264 51.6696 900.166 51.5818 900.05 51.5256C899.933 51.4693 899.804 51.447 899.675 51.4612C899.547 51.4753 899.425 51.5253 899.324 51.6055L849.091 91.4051C848.98 91.4937 848.898 91.6149 848.858 91.7518C848.818 91.8888 848.822 92.0348 848.869 92.1695C848.916 92.3042 849.004 92.421 849.12 92.5036C849.236 92.5863 849.375 92.6307 849.518 92.6307Z" fill="#CCCCCC"/>
<path d="M1076.67 235.209C1076.66 237.76 1077.17 240.287 1078.14 242.644C1079.12 245.002 1080.55 247.144 1082.35 248.948C1084.15 250.753 1086.3 252.184 1088.65 253.161C1091.01 254.138 1093.53 254.641 1096.09 254.641C1096.25 254.645 1096.42 254.638 1096.59 254.621C1099.09 248.362 1100.06 241.591 1099.41 234.879C1098.75 228.167 1096.49 221.711 1092.82 216.057C1088.3 216.831 1084.2 219.178 1081.24 222.683C1078.29 226.188 1076.67 230.624 1076.67 235.209Z" fill="#40DC8B"/>
<path d="M1054.67 225.938C1054.66 224.48 1054.08 223.083 1053.05 222.051C1052.02 221.02 1050.62 220.44 1049.17 220.438H1019.9C1018.19 223.915 1016.97 227.615 1016.29 231.429H1049.17C1050.62 231.428 1052.02 230.85 1053.05 229.821C1054.08 228.792 1054.66 227.395 1054.67 225.938Z" fill="#40DC8B"/>
<path d="M1015.61 238.99C1015.6 242.702 1016.09 246.398 1017.07 249.981H1049.17C1050.62 249.981 1052.02 249.402 1053.05 248.371C1054.08 247.341 1054.66 245.943 1054.66 244.485C1054.66 243.028 1054.08 241.63 1053.05 240.599C1052.02 239.569 1050.62 238.99 1049.17 238.99H1015.61Z" fill="#40DC8B"/>
<path d="M943.184 306.775C944.012 308.134 945.347 309.108 946.893 309.482C948.44 309.857 950.072 309.602 951.43 308.773L1021.43 266.068C1022.11 265.658 1022.69 265.119 1023.16 264.482C1023.62 263.846 1023.96 263.124 1024.14 262.358C1024.33 261.592 1024.36 260.797 1024.24 260.019C1024.12 259.24 1023.84 258.493 1023.43 257.82C1023.02 257.148 1022.48 256.562 1021.85 256.098C1021.21 255.633 1020.49 255.299 1019.72 255.113C1018.96 254.927 1018.16 254.895 1017.38 255.016C1016.61 255.138 1015.86 255.412 1015.19 255.822L945.181 298.528C943.823 299.356 942.849 300.691 942.475 302.238C942.1 303.784 942.355 305.417 943.184 306.775Z" fill="#3F3D56"/>
<path d="M1013.19 264.069C1018.13 272.175 1025.37 278.633 1033.98 282.626C1042.6 286.618 1052.2 287.967 1061.58 286.501C1070.96 285.035 1079.69 280.821 1086.68 274.39C1093.66 267.96 1098.58 259.602 1100.82 250.374C1103.05 241.147 1102.5 231.463 1099.24 222.549C1095.97 213.634 1090.13 205.889 1082.46 200.292C1074.79 194.695 1065.64 191.499 1056.15 191.106C1046.67 190.714 1037.28 193.144 1029.17 198.088C1018.32 204.728 1010.54 215.404 1007.54 227.773C1004.54 240.143 1006.58 253.196 1013.19 264.069ZM1084.9 220.322C1088.61 226.402 1090.43 233.444 1090.14 240.559C1089.84 247.674 1087.45 254.542 1083.25 260.294C1079.05 266.046 1073.24 270.425 1066.56 272.876C1059.87 275.327 1052.61 275.74 1045.69 274.063C1038.77 272.387 1032.5 268.695 1027.68 263.456C1022.86 258.217 1019.7 251.666 1018.6 244.63C1017.5 237.594 1018.51 230.391 1021.51 223.93C1024.5 217.469 1029.34 212.042 1035.42 208.334C1043.58 203.372 1053.36 201.848 1062.64 204.095C1071.92 206.343 1079.92 212.179 1084.9 220.322Z" fill="#3F3D56"/>
<path d="M859.398 246.769C845.833 246.769 834.837 235.771 834.837 222.205C834.837 208.638 845.833 197.641 859.398 197.641C872.963 197.641 883.959 208.638 883.959 222.205C883.959 235.771 872.963 246.769 859.398 246.769Z" fill="#A0616A"/>
<path d="M860.985 359.912C861.459 358.436 861.616 356.877 861.445 355.336C861.274 353.795 860.779 352.308 859.993 350.972C859.208 349.636 858.148 348.481 856.885 347.582C855.622 346.684 854.183 346.063 852.663 345.759C852.181 345.665 851.694 345.605 851.204 345.58L825.332 304.051L848.964 281.582C849.867 280.723 850.591 279.694 851.095 278.555C851.598 277.415 851.87 276.186 851.896 274.941C851.922 273.695 851.701 272.456 851.245 271.296C850.79 270.137 850.109 269.079 849.243 268.183C848.376 267.288 847.341 266.573 846.196 266.081C845.052 265.588 843.822 265.327 842.576 265.312C841.33 265.298 840.094 265.53 838.938 265.996C837.783 266.462 836.731 267.153 835.844 268.027L803.215 300.205L803.149 300.285C802.14 301.821 801.652 303.642 801.759 305.477C801.866 307.311 802.562 309.063 803.743 310.471L839.993 353.349C839.885 353.693 839.795 354.042 839.723 354.395C839.42 355.915 839.442 357.483 839.786 358.994C840.131 360.506 840.791 361.927 841.724 363.166C842.656 364.404 843.839 365.432 845.196 366.181C846.554 366.93 848.054 367.384 849.598 367.513C849.911 367.54 850.221 367.554 850.53 367.554C852.856 367.544 855.119 366.8 856.996 365.428C858.874 364.056 860.27 362.125 860.985 359.912Z" fill="#A0616A"/>
<path d="M899.849 564.074L912.109 564.073L917.941 516.779L899.847 516.78L899.849 564.074Z" fill="#A0616A"/>
<path d="M896.724 575.959L936.254 575.957V575.457C936.254 573.437 935.856 571.436 935.083 569.569C934.31 567.702 933.176 566.005 931.747 564.576C930.319 563.147 928.622 562.014 926.756 561.241C924.889 560.467 922.888 560.069 920.867 560.069L896.723 560.07L896.724 575.959Z" fill="#2F2E41"/>
<path d="M777.993 547.121L788.527 553.393L817.732 515.743L802.185 506.485L777.993 547.121Z" fill="#A0616A"/>
<path d="M769.227 555.734L803.193 575.959L803.449 575.53C804.483 573.793 805.164 571.87 805.455 569.871C805.746 567.871 805.64 565.833 805.143 563.875C804.647 561.916 803.769 560.074 802.561 558.454C801.352 556.835 799.837 555.469 798.101 554.435L777.355 542.082L769.227 555.734Z" fill="#2F2E41"/>
<path d="M919.488 543.246C927.7 446.528 932.586 356.679 902.564 320.026L902.331 319.742L851.806 339.955L851.723 340.136C851.552 340.507 834.749 377.473 838.668 402.338L826.206 459.672L785.57 527.722C785.243 528.269 785.036 528.881 784.963 529.514C784.89 530.148 784.952 530.79 785.146 531.398C785.34 532.006 785.661 532.566 786.088 533.04C786.514 533.515 787.037 533.893 787.621 534.15L805.28 541.921C806.276 542.354 807.396 542.415 808.433 542.09C809.471 541.766 810.356 541.079 810.928 540.155L855.132 468.066L880.1 412.773C880.236 412.473 880.466 412.226 880.757 412.07C881.047 411.914 881.38 411.858 881.705 411.91C882.03 411.962 882.329 412.12 882.556 412.359C882.782 412.598 882.924 412.905 882.959 413.232L896.799 543.345C896.915 544.45 897.436 545.474 898.263 546.217C899.089 546.961 900.162 547.371 901.274 547.369H915.002C916.128 547.363 917.212 546.937 918.041 546.174C918.871 545.412 919.386 544.368 919.488 543.246Z" fill="#2F2E41"/>
<path d="M902.395 320.792L902.636 320.677L902.673 320.413C904.561 307.201 902.327 292.522 896.033 276.782C892.931 269.079 887.166 262.747 879.787 258.939C872.408 255.131 863.906 254.101 855.832 256.037C851.18 257.183 846.818 259.283 843.02 262.203C839.223 265.124 836.073 268.801 833.771 273.003C831.498 277.161 830.114 281.746 829.706 286.467C829.297 291.189 829.874 295.944 831.398 300.431C839.332 323.634 849.624 345.343 849.727 345.56L849.943 346.013L902.395 320.792Z" fill="#40DC8B"/>
<path d="M957.521 287.885C956.304 286.924 954.899 286.232 953.396 285.852C951.893 285.473 950.327 285.415 948.8 285.684C947.273 285.952 945.821 286.539 944.537 287.408C943.253 288.277 942.168 289.407 941.351 290.725C941.094 291.143 940.867 291.579 940.672 292.029L892.718 301.723L879.95 271.715C879.462 270.569 878.752 269.53 877.86 268.66C876.969 267.789 875.914 267.104 874.756 266.643C873.599 266.183 872.361 265.956 871.115 265.977C869.87 265.997 868.64 266.264 867.499 266.763C866.357 267.261 865.325 267.981 864.462 268.88C863.6 269.779 862.925 270.841 862.475 272.003C862.025 273.165 861.81 274.404 861.842 275.65C861.873 276.896 862.152 278.123 862.66 279.26L881.37 321.095L881.422 321.185C882.507 322.668 884.042 323.762 885.798 324.304C887.554 324.847 889.438 324.808 891.17 324.195L944.023 305.252C944.307 305.474 944.602 305.68 944.908 305.871C946.226 306.687 947.701 307.216 949.237 307.423C950.773 307.629 952.336 307.508 953.822 307.069C955.309 306.629 956.686 305.88 957.863 304.871C959.039 303.862 959.99 302.616 960.652 301.214C960.787 300.931 960.908 300.645 961.016 300.355C961.822 298.173 961.917 295.793 961.29 293.553C960.662 291.314 959.343 289.33 957.521 287.885Z" fill="#A0616A"/>
<path d="M770.67 248.51C773.036 244.318 776.483 240.478 781.039 238.929C786.924 236.927 793.296 239.058 799.346 240.481C804.008 241.577 808.878 242.248 813.577 241.323C818.275 240.398 822.807 237.663 824.945 233.378C828.09 227.073 825.441 219.556 825.632 212.513C825.73 208.679 826.698 204.917 828.461 201.512C830.224 198.106 832.737 195.145 835.811 192.852C838.885 190.56 842.439 188.994 846.206 188.275C849.972 187.556 853.853 187.701 857.555 188.699C863.349 187.027 868.594 186.873 872.178 191.327C876.686 191.327 881.01 193.118 884.198 196.307C887.387 199.495 889.178 203.82 889.178 208.329H872.922C873.693 212.474 872.812 216.757 870.468 220.261C867.599 224.478 862.609 227.528 861.649 232.537C860.717 237.391 864.017 241.997 867.478 245.525C870.938 249.053 874.953 252.55 876.033 257.373C876.695 261.034 875.943 264.81 873.93 267.939C871.919 271.029 869.426 273.777 866.544 276.075C853.558 287.201 838.126 295.098 821.506 299.119C809.802 301.937 797 302.667 786.135 297.483C781.789 295.409 777.915 292.463 774.755 288.829C771.595 285.195 769.216 280.949 767.765 276.356C766.315 271.764 765.825 266.922 766.324 262.132C766.824 257.341 768.303 252.705 770.67 248.51Z" fill="#2F2E41"/>
<path d="M767 577H957C957.265 577 957.52 576.894 957.707 576.707C957.895 576.519 958 576.265 958 576C958 575.734 957.895 575.48 957.707 575.292C957.52 575.105 957.265 575 957 575H767C766.735 575 766.481 575.105 766.293 575.292C766.106 575.48 766 575.734 766 576C766 576.265 766.106 576.519 766.293 576.707C766.481 576.894 766.735 577 767 577Z" fill="#CCCCCC"/>
</g>
<path d="M243.195 197.46C242.618 196.09 241.652 194.919 240.417 194.093C239.182 193.266 237.731 192.82 236.245 192.81H97.52C95.5259 192.811 93.6137 193.603 92.2037 195.013C90.7937 196.423 90.0011 198.335 90 200.33V375.83C90.0011 377.824 90.7937 379.736 92.2037 381.146C93.6137 382.556 95.5259 383.349 97.52 383.35H236.25C238.244 383.347 240.155 382.554 241.564 381.144C242.974 379.734 243.767 377.823 243.77 375.83V200.33C243.773 199.344 243.579 198.369 243.2 197.46H243.195ZM242.095 375.83C242.093 377.381 241.476 378.867 240.38 379.964C239.283 381.061 237.796 381.678 236.245 381.68H97.52C95.9687 381.679 94.4811 381.063 93.3841 379.966C92.2871 378.869 91.6705 377.382 91.67 375.831V200.331C91.6721 198.78 92.2891 197.293 93.3857 196.196C94.4824 195.1 95.9691 194.483 97.52 194.481H236.25C237.418 194.485 238.559 194.837 239.526 195.493C240.493 196.148 241.243 197.077 241.68 198.161C241.765 198.376 241.839 198.597 241.9 198.821C242.033 199.313 242.1 199.821 242.1 200.331L242.095 375.83Z" fill="#3F3D56"/>
<path d="M214.244 234.245H172.458C171.572 234.245 170.721 233.892 170.094 233.265C169.467 232.639 169.115 231.788 169.115 230.902C169.115 230.015 169.467 229.165 170.094 228.538C170.721 227.911 171.572 227.559 172.458 227.559H214.244C215.131 227.559 215.981 227.911 216.608 228.538C217.235 229.165 217.587 230.015 217.587 230.902C217.587 231.788 217.235 232.639 216.608 233.265C215.981 233.892 215.131 234.245 214.244 234.245Z" fill="#3F3D56"/>
<path d="M214.244 251.794H172.458C171.572 251.794 170.721 251.442 170.094 250.815C169.467 250.188 169.115 249.338 169.115 248.451C169.115 247.565 169.467 246.714 170.094 246.088C170.721 245.461 171.572 245.108 172.458 245.108H214.244C215.131 245.108 215.981 245.461 216.608 246.088C217.235 246.714 217.587 247.565 217.587 248.451C217.587 249.338 217.235 250.188 216.608 250.815C215.981 251.442 215.131 251.794 214.244 251.794Z" fill="#3F3D56"/>
<path d="M151.019 261.787H120.482C119.485 261.786 118.529 261.39 117.823 260.685C117.118 259.98 116.722 259.024 116.721 258.026V221.99C116.722 220.993 117.118 220.037 117.823 219.332C118.529 218.627 119.485 218.231 120.482 218.229H151.019C152.016 218.231 152.972 218.627 153.677 219.332C154.382 220.037 154.779 220.993 154.78 221.99V258.026C154.779 259.024 154.382 259.98 153.677 260.685C152.972 261.39 152.016 261.786 151.019 261.787Z" fill="#40DC8B"/>
<path d="M213.955 287.73H119.519C118.632 287.73 117.782 287.378 117.155 286.751C116.528 286.124 116.176 285.274 116.176 284.387C116.176 283.5 116.528 282.65 117.155 282.023C117.782 281.396 118.632 281.044 119.519 281.044H213.955C214.394 281.044 214.828 281.13 215.234 281.298C215.64 281.466 216.008 281.713 216.319 282.023C216.629 282.334 216.875 282.702 217.043 283.108C217.211 283.513 217.298 283.948 217.298 284.387C217.298 284.826 217.211 285.261 217.043 285.666C216.875 286.072 216.629 286.44 216.319 286.751C216.008 287.061 215.64 287.307 215.234 287.475C214.828 287.643 214.394 287.73 213.955 287.73Z" fill="#CCCCCC"/>
<path d="M213.955 305.28H119.519C118.632 305.28 117.782 304.928 117.155 304.301C116.528 303.674 116.176 302.824 116.176 301.937C116.176 301.051 116.528 300.2 117.155 299.573C117.782 298.946 118.632 298.594 119.519 298.594H213.955C214.841 298.594 215.692 298.946 216.319 299.573C216.946 300.2 217.298 301.051 217.298 301.937C217.298 302.824 216.946 303.674 216.319 304.301C215.692 304.928 214.841 305.28 213.955 305.28Z" fill="#CCCCCC"/>
<path d="M213.955 322.83H119.519C118.632 322.83 117.782 322.478 117.155 321.851C116.528 321.224 116.176 320.374 116.176 319.487C116.176 318.6 116.528 317.75 117.155 317.123C117.782 316.496 118.632 316.144 119.519 316.144H213.955C214.841 316.144 215.692 316.496 216.319 317.123C216.946 317.75 217.298 318.6 217.298 319.487C217.298 320.374 216.946 321.224 216.319 321.851C215.692 322.478 214.841 322.83 213.955 322.83Z" fill="#CCCCCC"/>
<path d="M169.231 150.524C187.049 150.524 201.493 136.08 201.493 118.262C201.493 100.444 187.049 86 169.231 86C151.413 86 136.969 100.444 136.969 118.262C136.969 136.08 151.413 150.524 169.231 150.524Z" fill="#40DC8B"/>
<path d="M166.035 130.569C165.309 130.57 164.603 130.335 164.022 129.9L163.986 129.873L156.404 124.073C156.053 123.804 155.757 123.468 155.536 123.085C155.314 122.702 155.169 122.279 155.111 121.84C155.053 121.401 155.082 120.955 155.196 120.527C155.311 120.099 155.508 119.698 155.777 119.347C156.047 118.995 156.383 118.701 156.766 118.479C157.15 118.258 157.573 118.114 158.012 118.056C158.451 117.998 158.897 118.028 159.325 118.143C159.752 118.257 160.153 118.455 160.504 118.725L165.415 122.491L177.02 107.351C177.564 106.642 178.367 106.178 179.252 106.061C180.138 105.944 181.033 106.184 181.742 106.727L181.743 106.728L181.671 106.828L181.745 106.728C182.453 107.272 182.917 108.075 183.034 108.961C183.15 109.846 182.911 110.742 182.368 111.451L168.718 129.251C168.402 129.661 167.996 129.993 167.532 130.221C167.067 130.449 166.556 130.567 166.038 130.565L166.035 130.569Z" fill="white"/>
<path d="M345.296 325.724C357.37 325.724 367.158 315.936 367.158 303.862C367.158 291.788 357.37 282 345.296 282C333.222 282 323.434 291.788 323.434 303.862C323.434 315.936 333.222 325.724 345.296 325.724Z" fill="#CCCCCC"/>
<path d="M512.296 148.724C524.37 148.724 534.158 138.936 534.158 126.862C534.158 114.788 524.37 105 512.296 105C500.222 105 490.434 114.788 490.434 126.862C490.434 138.936 500.222 148.724 512.296 148.724Z" fill="#CCCCCC"/>
<path d="M692.296 340.724C704.37 340.724 714.158 330.936 714.158 318.862C714.158 306.788 704.37 297 692.296 297C680.222 297 670.434 306.788 670.434 318.862C670.434 330.936 680.222 340.724 692.296 340.724Z" fill="#CCCCCC"/>
<path d="M343.13 312.202C342.638 312.203 342.159 312.044 341.766 311.749L341.742 311.731L336.604 307.797C336.137 307.424 335.835 306.883 335.763 306.29C335.691 305.697 335.853 305.099 336.217 304.625C336.58 304.151 337.115 303.838 337.706 303.753C338.297 303.669 338.898 303.819 339.38 304.173L342.708 306.725L350.572 296.469C350.94 295.988 351.484 295.674 352.084 295.595C352.684 295.516 353.291 295.678 353.771 296.046L353.723 296.113L353.773 296.048C354.253 296.417 354.566 296.961 354.646 297.56C354.725 298.16 354.563 298.767 354.195 299.248L344.945 311.312C344.731 311.59 344.456 311.815 344.141 311.969C343.826 312.124 343.48 312.204 343.129 312.203L343.13 312.202Z" fill="white"/>
<path d="M510.13 135.202C509.638 135.203 509.159 135.044 508.766 134.749L508.742 134.731L503.604 130.797C503.137 130.424 502.835 129.883 502.763 129.29C502.691 128.697 502.853 128.099 503.217 127.625C503.58 127.151 504.115 126.838 504.706 126.753C505.297 126.669 505.898 126.819 506.38 127.173L509.708 129.725L517.572 119.469C517.94 118.988 518.484 118.674 519.084 118.595C519.684 118.516 520.291 118.678 520.771 119.046L520.723 119.113L520.773 119.048C521.253 119.417 521.566 119.961 521.646 120.56C521.725 121.16 521.563 121.767 521.195 122.248L511.945 134.312C511.731 134.59 511.456 134.815 511.141 134.969C510.826 135.124 510.48 135.204 510.129 135.203L510.13 135.202Z" fill="white"/>
<path d="M690.13 327.202C689.638 327.203 689.159 327.044 688.766 326.749L688.742 326.731L683.604 322.797C683.137 322.424 682.835 321.883 682.763 321.29C682.691 320.697 682.853 320.099 683.217 319.625C683.58 319.151 684.115 318.838 684.706 318.753C685.297 318.669 685.898 318.819 686.38 319.173L689.708 321.725L697.572 311.469C697.94 310.988 698.484 310.674 699.084 310.595C699.684 310.516 700.291 310.678 700.771 311.046L700.723 311.113L700.773 311.048C701.253 311.417 701.566 311.961 701.646 312.56C701.725 313.16 701.563 313.767 701.195 314.248L691.945 326.312C691.731 326.59 691.456 326.815 691.141 326.969C690.826 327.124 690.48 327.204 690.129 327.203L690.13 327.202Z" fill="white"/>
<path d="M406.732 355.123C406.277 354.045 405.518 353.124 404.546 352.474C403.574 351.824 402.433 351.473 401.264 351.464H292.103C290.534 351.465 289.029 352.088 287.919 353.198C286.81 354.307 286.186 355.812 286.186 357.381V495.474C286.186 497.043 286.81 498.547 287.919 499.657C289.029 500.766 290.534 501.39 292.103 501.391H401.264C402.832 501.389 404.336 500.765 405.445 499.655C406.554 498.546 407.178 497.042 407.181 495.474V357.381C407.183 356.606 407.03 355.838 406.732 355.123ZM405.867 495.475C405.864 496.694 405.379 497.863 404.517 498.725C403.654 499.587 402.486 500.072 401.267 500.075H292.103C290.883 500.075 289.713 499.59 288.85 498.728C287.987 497.865 287.503 496.695 287.503 495.475V357.381C287.505 356.162 287.99 354.993 288.852 354.131C289.715 353.269 290.883 352.783 292.103 352.781H401.264C402.183 352.785 403.081 353.063 403.842 353.579C404.604 354.096 405.193 354.827 405.537 355.681C405.603 355.851 405.661 356.024 405.71 356.2C405.814 356.587 405.867 356.987 405.868 357.388L405.867 495.475Z" fill="#CCCCCC"/>
<path d="M573.732 178.123C573.277 177.045 572.518 176.124 571.546 175.474C570.574 174.824 569.433 174.473 568.264 174.464H459.103C457.534 174.465 456.029 175.088 454.919 176.198C453.81 177.307 453.186 178.812 453.186 180.381V318.474C453.186 320.043 453.81 321.547 454.919 322.657C456.029 323.766 457.534 324.39 459.103 324.391H568.264C569.832 324.389 571.336 323.765 572.445 322.655C573.554 321.546 574.178 320.042 574.181 318.474V180.381C574.183 179.606 574.03 178.838 573.732 178.123ZM572.867 318.475C572.864 319.694 572.379 320.863 571.517 321.725C570.654 322.587 569.486 323.072 568.267 323.075H459.103C457.883 323.075 456.713 322.59 455.85 321.728C454.987 320.865 454.503 319.695 454.503 318.475V180.381C454.505 179.162 454.99 177.993 455.852 177.131C456.715 176.269 457.883 175.783 459.103 175.781H568.264C569.183 175.785 570.081 176.063 570.842 176.579C571.604 177.096 572.193 177.827 572.537 178.681C572.603 178.851 572.661 179.024 572.71 179.2C572.814 179.587 572.867 179.987 572.868 180.388L572.867 318.475Z" fill="#CCCCCC"/>
<path d="M753.732 370.123C753.277 369.045 752.518 368.124 751.546 367.474C750.574 366.824 749.433 366.473 748.264 366.464H639.103C637.534 366.465 636.029 367.088 634.919 368.198C633.81 369.307 633.186 370.812 633.186 372.381V510.474C633.186 512.043 633.81 513.547 634.919 514.657C636.029 515.766 637.534 516.39 639.103 516.391H748.264C749.832 516.389 751.336 515.765 752.445 514.655C753.554 513.546 754.178 512.042 754.181 510.474V372.381C754.183 371.606 754.03 370.838 753.732 370.123ZM752.867 510.475C752.864 511.694 752.379 512.863 751.517 513.725C750.654 514.587 749.486 515.072 748.267 515.075H639.103C637.883 515.075 636.713 514.59 635.85 513.728C634.987 512.865 634.503 511.695 634.503 510.475V372.381C634.505 371.162 634.99 369.993 635.852 369.131C636.715 368.269 637.883 367.783 639.103 367.781H748.264C749.183 367.785 750.081 368.063 750.842 368.579C751.604 369.096 752.193 369.827 752.537 370.681C752.603 370.851 752.661 371.024 752.71 371.2C752.814 371.587 752.867 371.987 752.868 372.388L752.867 510.475Z" fill="#CCCCCC"/>
<path d="M383.948 384.068H351.068C350.37 384.068 349.701 383.79 349.208 383.297C348.715 382.804 348.438 382.135 348.438 381.437C348.438 380.739 348.715 380.07 349.208 379.577C349.701 379.084 350.37 378.807 351.068 378.807H383.947C384.645 378.807 385.314 379.084 385.807 379.577C386.3 380.07 386.578 380.739 386.578 381.437C386.578 382.135 386.3 382.804 385.807 383.297C385.314 383.79 384.646 384.068 383.948 384.068Z" fill="#CCCCCC"/>
<path d="M550.948 207.068H518.068C517.37 207.068 516.701 206.79 516.208 206.297C515.715 205.804 515.438 205.135 515.438 204.437C515.438 203.739 515.715 203.07 516.208 202.577C516.701 202.084 517.37 201.807 518.068 201.807H550.947C551.645 201.807 552.314 202.084 552.807 202.577C553.3 203.07 553.578 203.739 553.578 204.437C553.578 205.135 553.3 205.804 552.807 206.297C552.314 206.79 551.646 207.068 550.948 207.068Z" fill="#CCCCCC"/>
<path d="M730.948 399.068H698.068C697.37 399.068 696.701 398.79 696.208 398.297C695.715 397.804 695.438 397.135 695.438 396.437C695.438 395.739 695.715 395.07 696.208 394.577C696.701 394.084 697.37 393.807 698.068 393.807H730.947C731.645 393.807 732.314 394.084 732.807 394.577C733.3 395.07 733.578 395.739 733.578 396.437C733.578 397.135 733.3 397.804 732.807 398.297C732.314 398.79 731.646 399.068 730.948 399.068Z" fill="#CCCCCC"/>
<path d="M383.948 397.877H351.068C350.37 397.877 349.701 397.6 349.208 397.107C348.715 396.613 348.438 395.944 348.438 395.247C348.438 394.549 348.715 393.88 349.208 393.387C349.701 392.893 350.37 392.616 351.068 392.616H383.947C384.645 392.616 385.314 392.893 385.807 393.387C386.3 393.88 386.578 394.549 386.578 395.247C386.578 395.944 386.3 396.613 385.807 397.107C385.314 397.6 384.646 397.877 383.948 397.877Z" fill="#CCCCCC"/>
<path d="M550.948 220.877H518.068C517.37 220.877 516.701 220.6 516.208 220.107C515.715 219.613 515.438 218.944 515.438 218.247C515.438 217.549 515.715 216.88 516.208 216.387C516.701 215.893 517.37 215.616 518.068 215.616H550.947C551.645 215.616 552.314 215.893 552.807 216.387C553.3 216.88 553.578 217.549 553.578 218.247C553.578 218.944 553.3 219.613 552.807 220.107C552.314 220.6 551.646 220.877 550.948 220.877Z" fill="#CCCCCC"/>
<path d="M730.948 412.877H698.068C697.37 412.877 696.701 412.6 696.208 412.107C695.715 411.613 695.438 410.944 695.438 410.247C695.438 409.549 695.715 408.88 696.208 408.387C696.701 407.893 697.37 407.616 698.068 407.616H730.947C731.645 407.616 732.314 407.893 732.807 408.387C733.3 408.88 733.578 409.549 733.578 410.247C733.578 410.944 733.3 411.613 732.807 412.107C732.314 412.6 731.646 412.877 730.948 412.877Z" fill="#CCCCCC"/>
<path d="M334.198 405.741H310.17C309.385 405.74 308.633 405.428 308.078 404.873C307.524 404.318 307.212 403.566 307.211 402.782V374.427C307.212 373.642 307.524 372.89 308.078 372.335C308.633 371.781 309.385 371.469 310.17 371.468H334.198C334.982 371.469 335.734 371.781 336.289 372.336C336.844 372.89 337.156 373.642 337.157 374.427V402.782C337.156 403.566 336.844 404.318 336.289 404.873C335.735 405.428 334.982 405.74 334.198 405.741Z" fill="#CCCCCC"/>
<path d="M501.198 228.741H477.17C476.385 228.74 475.633 228.428 475.078 227.873C474.524 227.318 474.212 226.566 474.211 225.782V197.427C474.212 196.642 474.524 195.89 475.078 195.335C475.633 194.781 476.385 194.469 477.17 194.468H501.198C501.982 194.469 502.734 194.781 503.289 195.336C503.844 195.89 504.156 196.642 504.157 197.427V225.782C504.156 226.566 503.844 227.318 503.289 227.873C502.735 228.428 501.982 228.74 501.198 228.741Z" fill="#CCCCCC"/>
<path d="M681.198 420.741H657.17C656.385 420.74 655.633 420.428 655.078 419.873C654.524 419.318 654.212 418.566 654.211 417.782V389.427C654.212 388.642 654.524 387.89 655.078 387.335C655.633 386.781 656.385 386.469 657.17 386.468H681.198C681.982 386.469 682.734 386.781 683.289 387.336C683.844 387.89 684.156 388.642 684.157 389.427V417.782C684.156 418.566 683.844 419.318 683.289 419.873C682.735 420.428 681.982 420.74 681.198 420.741Z" fill="#CCCCCC"/>
<path d="M383.719 426.154H309.412C308.714 426.154 308.045 425.876 307.552 425.383C307.058 424.89 306.781 424.221 306.781 423.523C306.781 422.825 307.058 422.156 307.552 421.663C308.045 421.17 308.714 420.893 309.412 420.893H383.719C384.416 420.893 385.085 421.17 385.579 421.663C386.072 422.156 386.349 422.825 386.349 423.523C386.349 424.221 386.072 424.89 385.579 425.383C385.085 425.876 384.416 426.154 383.719 426.154Z" fill="#CCCCCC"/>
<path d="M550.719 249.154H476.412C475.714 249.154 475.045 248.876 474.552 248.383C474.058 247.89 473.781 247.221 473.781 246.523C473.781 245.825 474.058 245.156 474.552 244.663C475.045 244.17 475.714 243.893 476.412 243.893H550.719C551.416 243.893 552.085 244.17 552.579 244.663C553.072 245.156 553.349 245.825 553.349 246.523C553.349 247.221 553.072 247.89 552.579 248.383C552.085 248.876 551.416 249.154 550.719 249.154Z" fill="#CCCCCC"/>
<path d="M730.719 441.154H656.412C655.714 441.154 655.045 440.876 654.552 440.383C654.058 439.89 653.781 439.221 653.781 438.523C653.781 437.825 654.058 437.156 654.552 436.663C655.045 436.17 655.714 435.893 656.412 435.893H730.719C731.416 435.893 732.085 436.17 732.579 436.663C733.072 437.156 733.349 437.825 733.349 438.523C733.349 439.221 733.072 439.89 732.579 440.383C732.085 440.876 731.416 441.154 730.719 441.154Z" fill="#CCCCCC"/>
<path d="M383.719 439.967H309.412C308.714 439.967 308.045 439.69 307.552 439.197C307.058 438.703 306.781 438.034 306.781 437.337C306.781 436.639 307.058 435.97 307.552 435.477C308.045 434.983 308.714 434.706 309.412 434.706H383.719C384.416 434.706 385.085 434.983 385.579 435.477C386.072 435.97 386.349 436.639 386.349 437.337C386.349 438.034 386.072 438.703 385.579 439.197C385.085 439.69 384.416 439.967 383.719 439.967Z" fill="#CCCCCC"/>
<path d="M550.719 262.967H476.412C475.714 262.967 475.045 262.69 474.552 262.197C474.058 261.703 473.781 261.034 473.781 260.337C473.781 259.639 474.058 258.97 474.552 258.477C475.045 257.983 475.714 257.706 476.412 257.706H550.719C551.416 257.706 552.085 257.983 552.579 258.477C553.072 258.97 553.349 259.639 553.349 260.337C553.349 261.034 553.072 261.703 552.579 262.197C552.085 262.69 551.416 262.967 550.719 262.967Z" fill="#CCCCCC"/>
<path d="M730.719 454.967H656.412C655.714 454.967 655.045 454.69 654.552 454.197C654.058 453.703 653.781 453.034 653.781 452.337C653.781 451.639 654.058 450.97 654.552 450.477C655.045 449.983 655.714 449.706 656.412 449.706H730.719C731.416 449.706 732.085 449.983 732.579 450.477C733.072 450.97 733.349 451.639 733.349 452.337C733.349 453.034 733.072 453.703 732.579 454.197C732.085 454.69 731.416 454.967 730.719 454.967Z" fill="#CCCCCC"/>
<path d="M383.719 453.773H309.412C308.714 453.773 308.045 453.496 307.552 453.002C307.058 452.509 306.781 451.84 306.781 451.142C306.781 450.445 307.058 449.775 307.552 449.282C308.045 448.789 308.714 448.512 309.412 448.512H383.719C384.416 448.512 385.085 448.789 385.579 449.282C386.072 449.775 386.349 450.445 386.349 451.142C386.349 451.84 386.072 452.509 385.579 453.002C385.085 453.496 384.416 453.773 383.719 453.773Z" fill="#CCCCCC"/>
<path d="M550.719 276.773H476.412C475.714 276.773 475.045 276.496 474.552 276.002C474.058 275.509 473.781 274.84 473.781 274.142C473.781 273.445 474.058 272.775 474.552 272.282C475.045 271.789 475.714 271.512 476.412 271.512H550.719C551.416 271.512 552.085 271.789 552.579 272.282C553.072 272.775 553.349 273.445 553.349 274.142C553.349 274.84 553.072 275.509 552.579 276.002C552.085 276.496 551.416 276.773 550.719 276.773Z" fill="#CCCCCC"/>
<path d="M730.719 468.773H656.412C655.714 468.773 655.045 468.496 654.552 468.002C654.058 467.509 653.781 466.84 653.781 466.142C653.781 465.445 654.058 464.775 654.552 464.282C655.045 463.789 655.714 463.512 656.412 463.512H730.719C731.416 463.512 732.085 463.789 732.579 464.282C733.072 464.775 733.349 465.445 733.349 466.142C733.349 466.84 733.072 467.509 732.579 468.002C732.085 468.496 731.416 468.773 730.719 468.773Z" fill="#CCCCCC"/>
<path d="M383.719 467.585H309.412C308.714 467.585 308.045 467.308 307.552 466.815C307.058 466.321 306.781 465.652 306.781 464.955C306.781 464.257 307.058 463.588 307.552 463.095C308.045 462.601 308.714 462.324 309.412 462.324H383.719C384.416 462.324 385.085 462.601 385.579 463.095C386.072 463.588 386.349 464.257 386.349 464.955C386.349 465.652 386.072 466.321 385.579 466.815C385.085 467.308 384.416 467.585 383.719 467.585Z" fill="#CCCCCC"/>
<path d="M550.719 290.585H476.412C475.714 290.585 475.045 290.308 474.552 289.815C474.058 289.321 473.781 288.652 473.781 287.955C473.781 287.257 474.058 286.588 474.552 286.095C475.045 285.601 475.714 285.324 476.412 285.324H550.719C551.416 285.324 552.085 285.601 552.579 286.095C553.072 286.588 553.349 287.257 553.349 287.955C553.349 288.652 553.072 289.321 552.579 289.815C552.085 290.308 551.416 290.585 550.719 290.585Z" fill="#CCCCCC"/>
<path d="M730.719 482.585H656.412C655.714 482.585 655.045 482.308 654.552 481.815C654.058 481.321 653.781 480.652 653.781 479.955C653.781 479.257 654.058 478.588 654.552 478.095C655.045 477.601 655.714 477.324 656.412 477.324H730.719C731.416 477.324 732.085 477.601 732.579 478.095C733.072 478.588 733.349 479.257 733.349 479.955C733.349 480.652 733.072 481.321 732.579 481.815C732.085 482.308 731.416 482.585 730.719 482.585Z" fill="#CCCCCC"/>
<path d="M383.719 481.392H309.412C308.714 481.392 308.045 481.115 307.552 480.621C307.058 480.128 306.781 479.459 306.781 478.761C306.781 478.064 307.058 477.395 307.552 476.901C308.045 476.408 308.714 476.131 309.412 476.131H383.719C384.416 476.131 385.085 476.408 385.579 476.901C386.072 477.395 386.349 478.064 386.349 478.761C386.349 479.459 386.072 480.128 385.579 480.621C385.085 481.115 384.416 481.392 383.719 481.392Z" fill="#CCCCCC"/>
<path d="M550.719 304.392H476.412C475.714 304.392 475.045 304.115 474.552 303.621C474.058 303.128 473.781 302.459 473.781 301.761C473.781 301.064 474.058 300.395 474.552 299.901C475.045 299.408 475.714 299.131 476.412 299.131H550.719C551.416 299.131 552.085 299.408 552.579 299.901C553.072 300.395 553.349 301.064 553.349 301.761C553.349 302.459 553.072 303.128 552.579 303.621C552.085 304.115 551.416 304.392 550.719 304.392Z" fill="#CCCCCC"/>
<path d="M730.719 496.392H656.412C655.714 496.392 655.045 496.115 654.552 495.621C654.058 495.128 653.781 494.459 653.781 493.761C653.781 493.064 654.058 492.395 654.552 491.901C655.045 491.408 655.714 491.131 656.412 491.131H730.719C731.416 491.131 732.085 491.408 732.579 491.901C733.072 492.395 733.349 493.064 733.349 493.761C733.349 494.459 733.072 495.128 732.579 495.621C732.085 496.115 731.416 496.392 730.719 496.392Z" fill="#CCCCCC"/>
</g>
<defs>
<linearGradient id="paint0_linear_68_12043" x1="1270.99" y1="635.5" x2="823.595" y2="-68.4457" gradientUnits="userSpaceOnUse">
<stop stop-color="#E3F5DC" stop-opacity="0.8"/>
<stop offset="1" stop-color="#E3F5DC" stop-opacity="0.04"/>
</linearGradient>
<clipPath id="clip0_68_12043">
<rect width="1221" height="631" fill="white"/>
</clipPath>
<clipPath id="clip1_68_12043">
<rect width="578" height="622" fill="white" transform="matrix(-1 0 0 1 1344 -45)"/>
</clipPath>
</defs>
</svg>
