<svg width="925" height="631" viewBox="0 0 925 631" fill="none" xmlns="http://www.w3.org/2000/svg">
<g clip-path="url(#clip0_68_11862)">
<rect width="925" height="631" fill="white"/>
<path d="M875.533 -33C906.719 -33 932 -21.7884 932 -7.95852L932 640.957C932 654.785 906.719 666 875.534 666L56.4688 666C25.2886 666 0 654.785 0 640.957L0 -7.95852C0 -21.7884 25.2886 -33 56.4688 -33L875.533 -33Z" fill="url(#paint0_linear_68_11862)"/>
<g clip-path="url(#clip1_68_11862)">
<path d="M741.826 402.317C742.563 402.386 743.304 402.226 743.948 401.859C744.592 401.492 745.107 400.936 745.424 400.267C745.742 399.598 745.845 398.847 745.722 398.116C745.598 397.386 745.253 396.711 744.733 396.183C744.658 395.817 744.605 395.555 744.531 395.189C744.567 395.111 744.604 395.034 744.64 394.957C745.467 393.233 746.785 391.791 748.428 390.813C750.072 389.835 751.967 389.365 753.877 389.461C755.787 389.557 757.626 390.215 759.163 391.353C760.7 392.491 761.867 394.057 762.516 395.856C765.113 403.035 768.507 410.263 769.077 417.753C769.328 421.063 769.002 424.392 768.115 427.591C775.681 412.928 780.005 396.811 780.795 380.33C780.989 376.195 780.952 372.051 780.683 367.92C780.46 364.533 780.088 361.163 779.568 357.81C776.726 339.616 769.609 322.357 758.801 307.448C753.387 304.158 749.112 299.288 746.551 293.494C745.623 291.411 745.001 289.204 744.704 286.943C745.327 287.054 745.962 287.135 746.586 287.206C746.781 287.225 746.986 287.245 747.181 287.264L747.254 287.271C747.942 287.334 748.632 287.197 749.244 286.876C749.855 286.556 750.36 286.066 750.699 285.464C751.038 284.863 751.196 284.177 751.154 283.488C751.112 282.799 750.872 282.137 750.462 281.582C750.207 281.236 749.952 280.891 749.697 280.546C749.31 280.013 748.912 279.49 748.525 278.957C748.48 278.906 748.438 278.853 748.399 278.797C747.953 278.189 747.508 277.592 747.062 276.984C747.987 275.686 749.2 274.618 750.605 273.865C755.47 271.312 761.914 273.537 765.135 277.98C768.367 282.423 768.734 288.463 767.293 293.76C765.909 298.259 763.77 302.49 760.966 306.272C761.208 306.613 761.46 306.944 761.701 307.284C766.115 313.54 769.905 320.212 773.017 327.207C772.539 319.511 773.895 311.812 776.974 304.742C780.067 298.164 785.541 292.758 790.401 287.173C796.237 280.464 807.4 284.03 807.96 292.905C807.966 292.991 807.971 293.076 807.976 293.162C807.276 293.515 806.59 293.892 805.917 294.294C805.071 294.803 804.399 295.557 803.989 296.455C803.579 297.353 803.449 298.355 803.618 299.328C803.787 300.301 804.245 301.2 804.933 301.908C805.622 302.616 806.508 303.099 807.476 303.295L807.575 303.315C807.218 305.761 806.675 308.175 805.952 310.539C803.868 317.133 800.444 323.226 795.895 328.435C791.346 333.644 785.77 337.857 779.516 340.81C779.106 340.997 778.706 341.184 778.296 341.361C781.287 351.288 782.976 361.561 783.318 371.924C783.5 378.036 783.188 384.153 782.384 390.215L782.425 390.001C784.055 383.294 787.949 377.356 793.451 373.188C801.618 367.093 812.841 365.231 821.569 360.432C822.498 359.895 823.561 359.635 824.633 359.682C825.704 359.729 826.74 360.082 827.618 360.699C828.496 361.315 829.179 362.17 829.587 363.163C829.995 364.155 830.111 365.243 829.921 366.299C829.906 366.374 829.891 366.449 829.876 366.524C828.587 366.981 827.327 367.517 826.105 368.13C825.405 368.483 824.719 368.86 824.046 369.261C823.201 369.771 822.528 370.524 822.118 371.423C821.708 372.321 821.579 373.322 821.747 374.295C821.916 375.268 822.374 376.167 823.063 376.875C823.751 377.583 824.637 378.067 825.605 378.262L825.705 378.282C825.776 378.296 825.837 378.309 825.908 378.323C823.507 383.383 820.252 387.992 816.287 391.948C811.393 396.732 805.574 400.467 799.186 402.922C792.797 405.377 785.975 406.502 779.137 406.227L779.126 406.227C776.895 414.204 773.841 421.929 770.013 429.275L741.352 427.941C741.264 427.617 741.187 427.284 741.11 426.962C743.755 427.252 746.426 427.217 749.062 426.858C747.057 424.15 745.053 421.421 743.048 418.713C743.003 418.662 742.961 418.609 742.922 418.553C741.905 417.167 740.878 415.791 739.862 414.406L739.861 414.404C739.994 410.308 740.654 406.246 741.825 402.318L741.826 402.317Z" fill="#F2F2F2"/>
<path d="M164.343 154.482C163.611 154.596 162.862 154.482 162.197 154.156C161.531 153.83 160.983 153.307 160.625 152.658C160.267 152.009 160.117 151.266 160.195 150.53C160.273 149.793 160.576 149.098 161.063 148.539C161.114 148.17 161.151 147.904 161.202 147.534C161.161 147.459 161.12 147.385 161.079 147.31C160.147 145.64 158.743 144.282 157.042 143.408C155.342 142.533 153.42 142.181 151.52 142.395C149.62 142.608 147.825 143.379 146.361 144.61C144.897 145.84 143.83 147.476 143.293 149.311C141.145 156.637 138.203 164.061 138.097 171.572C138.051 174.891 138.582 178.193 139.665 181.332C131.208 167.165 125.896 151.345 124.089 134.945C123.64 130.829 123.421 126.691 123.434 122.551C123.448 119.157 123.611 115.77 123.922 112.391C125.635 94.0572 131.672 76.3907 141.539 60.8428C146.739 57.2251 150.705 52.1002 152.903 46.1589C153.701 44.0223 154.185 41.7815 154.341 39.5061C153.727 39.6558 153.098 39.7758 152.479 39.8845C152.286 39.9158 152.083 39.9483 151.889 39.9797L151.817 39.9909C151.135 40.0962 150.437 40.0022 149.807 39.72C149.177 39.4379 148.642 38.9797 148.267 38.4007C147.891 37.8216 147.691 37.1464 147.69 36.4563C147.69 35.7661 147.889 35.0905 148.263 34.5108C148.496 34.1501 148.73 33.7896 148.963 33.4293C149.317 32.8736 149.681 32.327 150.035 31.7714C150.077 31.7177 150.115 31.6617 150.151 31.6035C150.558 30.9696 150.966 30.346 151.373 29.7121C150.369 28.4731 149.093 27.4826 147.644 26.8178C142.631 24.5702 136.337 27.1891 133.396 31.8226C130.445 36.4572 130.452 42.5081 132.217 47.7055C133.876 52.1109 136.273 56.2018 139.305 59.8029C139.085 60.1579 138.853 60.5037 138.633 60.8587C134.615 67.3747 131.244 74.2689 128.57 81.4424C128.572 73.7317 126.742 66.1308 123.233 59.265C119.74 52.8906 113.942 47.8326 108.747 42.5585C102.506 36.2235 91.5856 40.4724 91.5748 49.3645C91.5747 49.4506 91.5748 49.5367 91.5751 49.6227C92.2952 49.9316 93.0035 50.2656 93.7 50.6247C94.5755 51.0813 95.2928 51.7917 95.7577 52.6629C96.2226 53.5341 96.4135 54.5254 96.3055 55.5069C96.1974 56.4885 95.7953 57.4145 95.1519 58.1636C94.5086 58.9127 93.6539 59.4501 92.7 59.7052L92.6023 59.7313C93.1099 62.1501 93.8007 64.5267 94.6686 66.8408C97.1561 73.2938 100.95 79.1634 105.812 84.0815C110.675 88.9997 116.5 92.8603 122.925 95.4214C123.346 95.5824 123.756 95.7446 124.176 95.8955C121.804 105.988 120.753 116.347 121.052 126.71C121.248 132.822 121.938 138.908 123.114 144.909L123.06 144.698C121.019 138.105 116.765 132.418 111.017 128.598C102.489 123.019 91.1716 121.854 82.1641 117.604C81.2039 117.125 80.1268 116.931 79.0599 117.044C77.9931 117.158 76.9809 117.574 76.1427 118.244C75.3046 118.913 74.6755 119.809 74.3296 120.825C73.9838 121.84 73.9355 122.934 74.1906 123.976C74.2101 124.05 74.2298 124.124 74.2497 124.198C75.5644 124.573 76.8544 125.031 78.1123 125.567C78.8323 125.876 79.5406 126.21 80.2371 126.569C81.1127 127.026 81.8299 127.736 82.2948 128.607C82.7598 129.478 82.9507 130.47 82.8426 131.451C82.7345 132.433 82.3324 133.359 81.6891 134.108C81.0457 134.857 80.191 135.394 79.2371 135.65L79.1393 135.676C79.0689 135.694 79.0086 135.711 78.9383 135.729C81.648 140.631 85.1813 145.03 89.3835 148.733C94.5634 153.206 100.602 156.574 107.13 158.63C113.658 160.686 120.536 161.387 127.345 160.69L127.355 160.689C130.075 168.513 133.6 176.034 137.875 183.13L166.398 180.027C166.466 179.699 166.522 179.362 166.58 179.035C163.958 179.488 161.29 179.619 158.636 179.423C160.47 176.596 162.302 173.749 164.136 170.922C164.177 170.868 164.216 170.812 164.252 170.754C165.181 169.308 166.121 167.872 167.05 166.426L167.05 166.424C166.664 162.344 165.755 158.331 164.344 154.483L164.343 154.482Z" fill="#F2F2F2"/>
<path d="M558.42 143.911C559.832 144.3 561.141 144.993 562.256 145.942C563.371 146.892 564.264 148.074 564.873 149.406C565.481 150.738 565.79 152.187 565.778 153.651C565.766 155.115 565.434 156.559 564.803 157.88L580.11 174.898L572.037 186.722L550.759 162.386C548.609 161.18 546.976 159.227 546.169 156.898C545.363 154.568 545.439 152.023 546.383 149.746C547.328 147.469 549.074 145.617 551.293 144.542C553.511 143.466 556.047 143.242 558.42 143.911Z" fill="#A0616A"/>
<path d="M701.715 185.698C700.335 183.452 698.526 181.501 696.39 179.956C694.254 178.411 691.834 177.303 689.27 176.695C686.705 176.087 684.045 175.992 681.443 176.414C678.841 176.836 676.348 177.768 674.107 179.156L623.768 210.333L569.467 164.176L555.957 176.754L615.944 254.584L693.909 213.94C692.09 214.888 703.914 189.277 701.715 185.698Z" fill="#CCCCCC"/>
<path d="M601.991 289.365C601.996 314.226 597.103 338.845 587.591 361.816C578.079 384.786 564.135 405.657 546.555 423.237C528.975 440.817 508.104 454.761 485.134 464.273C462.164 473.784 437.545 478.678 412.683 478.673C308.132 478.673 223.375 393.915 223.375 289.365C223.357 269.028 226.617 248.821 233.03 229.522C245.62 191.831 269.74 159.052 301.979 135.819C334.218 112.586 372.945 100.076 412.683 100.057C446.955 100.045 480.586 109.34 509.988 126.949C539.389 144.559 563.457 169.823 579.621 200.043C583.629 207.499 587.125 215.219 590.086 223.149C590.496 224.253 590.896 225.357 591.285 226.472V226.483C593.02 231.384 594.549 236.376 595.87 241.459C599.947 257.101 602.004 273.2 601.991 289.365Z" fill="#3F3D56"/>
<path d="M391.972 161.64C383.464 157.04 374.019 154.443 364.355 154.047C354.691 153.652 345.065 155.469 336.21 159.359C328.414 162.752 320.204 168.839 317.604 179.83C328.123 173.622 341.739 183.431 344.446 199.166L343.814 199.34C342.384 210.238 345.576 222.104 351.755 228.862C352.566 221.842 357.182 217.065 361.721 214.081C366.261 211.096 371.283 208.928 374.749 203.799C378.856 197.717 379.9 188.83 381.531 180.722C383.163 172.614 386.259 163.899 391.972 161.64Z" fill="white"/>
<path d="M333.091 254.384C330.178 258.759 326.286 261.505 322.795 264.923C319.314 268.351 316.001 272.979 315.307 278.921C314.865 282.728 315.548 286.598 315.454 290.448C315.359 294.297 314.076 298.63 311.457 299.587C307.324 301.08 304.169 293.403 299.92 292.866C296.544 292.446 293.505 297.757 294.483 302.363C295.461 306.97 300.057 309.01 302.697 306.002C305.084 310.009 303.401 317.277 299.815 318.507C299.436 321.031 299.058 323.545 298.69 326.069C289.624 319.727 280.463 313.28 272.754 303.994C264.181 293.753 258.863 281.183 257.484 267.899C256.484 257.224 257.967 245.014 253.066 236.8C249.143 230.227 242.412 228.775 236.355 229.186C235.25 229.259 234.136 229.385 233.031 229.522C236.604 218.792 241.141 208.408 246.588 198.497C247.82 197.967 248.966 197.255 249.985 196.383C255.622 191.597 258.125 181.911 262.7 175.212C262.994 174.78 263.299 174.36 263.615 173.95C268.295 167.839 274.563 164.694 280.621 161.771C294.03 155.261 307.829 148.666 321.985 149.571L317.957 149.96C313.256 163.127 308.551 176.295 303.843 189.462C303.128 191.482 302.406 193.504 301.676 195.531C299.005 203.019 296.25 210.991 296.66 219.373C296.902 224.337 298.626 229.638 301.908 231.341C304.968 232.919 308.313 230.984 311.268 229.07C312.52 228.27 313.761 227.471 315.012 226.661C319.503 223.769 324.477 220.803 329.221 222.738C333.564 224.505 336.772 230.405 337.382 236.768C337.941 242.953 336.432 249.149 333.091 254.384Z" fill="white"/>
<path d="M359.799 344.282C346.683 336.206 333.567 328.13 320.451 320.055L320.674 319.481C312.519 322.587 309.133 337.083 310.481 348.937C311.829 360.792 316.399 371.389 318.707 382.94C321.82 398.746 320.645 415.098 315.304 430.297C332.551 410.945 347.814 389.913 360.865 367.517C362.688 364.694 364.077 361.613 364.986 358.378C365.819 354.937 365.691 350.799 364.022 348.039C362.949 346.455 361.497 345.164 359.799 344.282Z" fill="white"/>
<path d="M308.036 197.362C306.644 200.494 306.108 204.669 307.372 207.909C308.662 211.218 311.391 212.714 313.903 213.959L321.15 217.551C323.561 218.746 326.16 219.953 328.618 218.97C331.582 217.784 333.638 213.137 333.106 208.822C332.54 204.231 329.646 201.073 326.97 198.383C323.224 194.62 319.479 190.856 315.733 187.093L313.622 189.678C311.339 191.905 309.45 194.503 308.036 197.362Z" fill="white"/>
<path d="M563.142 246.444C566.403 247.212 569.663 247.979 572.923 248.747C572.355 259.759 566.897 269.95 559.577 273.641C556.527 275.177 553.13 275.745 550.606 278.616C548.324 281.224 547.167 285.284 546.105 289.164C544.243 295.938 542.382 302.711 540.52 309.483C538.522 316.782 535.956 324.891 530.76 327.52C526.301 329.782 521.2 327.015 517.772 322.377C514.343 317.739 512.25 311.503 510.22 305.424C510.346 312.05 507.265 318.549 502.9 320.852C498.525 323.156 493.204 321.073 490.28 315.931C488.176 312.239 487.304 307.369 485.242 303.625C483.181 299.881 478.858 297.736 476.608 301.249C475.125 303.583 475.314 307.159 474.578 310.125C473.431 314.731 469.961 317.624 466.522 317.876C463.093 318.129 459.749 316.151 456.878 313.469C450.956 307.916 446.592 299.103 444.899 289.312C444.152 284.947 443.942 280.193 445.235 276.102C446.529 272.011 449.652 268.856 452.755 269.634C454.795 265.322 450.767 259.601 447.139 260.106C443.5 260.61 440.65 264.512 437.663 267.51C434.686 270.507 430.522 272.684 427.524 269.708C427.545 272.474 425.295 274.304 423.349 274.072C421.414 273.852 419.689 272.295 417.912 271.191C411.044 266.91 402.325 269.75 397.445 277.848C400.495 264.87 404.965 249.978 414.336 246.928C418.164 245.676 422.339 246.707 425.957 244.54C432.362 240.702 433.656 226.198 428.124 220.214C428.828 225.872 428.692 232.477 425.705 236.347C422.718 240.218 416.45 237.694 416.828 231.972C415.966 235.916 411.675 236.516 409.698 233.487C407.71 230.458 407.878 225.504 409.288 221.886C410.697 218.268 413.095 215.671 415.419 213.178C420.415 207.825 425.484 202.409 431.268 199.043C437.063 195.678 443.752 194.542 449.558 197.886C452.618 199.653 455.31 202.598 458.434 204.155C461.558 205.722 465.523 205.522 467.595 201.862C469.919 197.781 468.825 191.723 469.687 186.623C471.233 177.609 480.246 173.392 485.242 179.345C481.509 178.388 477.649 182.805 477.186 188.158C476.713 193.511 479.416 198.917 483.034 200.537C489.112 203.229 495.065 196.456 499.661 190.188C504.457 183.625 509.26 177.066 514.07 170.51C514.838 169.394 515.7 168.346 516.646 167.376C518.153 165.908 520.161 165.067 522.264 165.024C524.367 164.981 526.408 165.739 527.973 167.145C532.832 171.11 535.114 179.24 539.1 184.835C544.885 192.964 553.54 194.942 561.596 196.519C567.602 197.687 573.61 198.861 579.623 200.042C583.631 207.498 587.127 215.218 590.087 223.149C579.907 227.471 570.515 235.559 563.142 246.444Z" fill="white"/>
<path d="M582.557 372.986C578.051 382.135 572.811 390.904 566.887 399.205C563.101 397.586 559.03 400.478 555.486 403.191C551.784 406.031 547.335 408.797 543.539 406.21C539.658 403.559 538.406 396.145 539.637 390.266C540.867 384.397 543.938 379.728 546.915 375.289C550.07 370.578 553.446 365.687 557.831 363.857C562.228 362.027 567.875 364.615 569.158 370.862L572.271 370.757C570.526 368.359 571.441 363.394 573.786 362.522C576.489 361.502 578.834 365.214 580.433 368.495C581.148 369.978 581.874 371.472 582.557 372.986Z" fill="white"/>
<path d="M463.328 328.562C456.637 328.983 451.337 320.746 447.815 312.642C444.292 304.538 441.079 295.271 435.041 291.146C431.591 288.789 427.658 288.466 423.916 287.324C420.174 286.182 416.258 283.818 414.469 279.006L410.224 277.291C404.619 280.443 398.939 283.653 394.109 288.782C388.691 294.537 385.317 301.914 384.506 309.775C383.695 318.271 386.689 327.745 392.284 330.937C396.705 333.458 401.851 331.869 406.329 334.178C411.924 337.062 415.245 345.441 416.502 353.714C417.76 361.988 417.441 370.586 418.341 378.953C419.24 387.32 421.719 396.026 426.85 400.314C433.27 405.68 442.691 401.221 445.572 391.454C446.985 386.663 446.936 381.256 447.993 376.283C449.854 367.525 454.876 361.027 458.859 353.842C462.842 346.658 465.977 336.9 463.328 328.562Z" fill="white"/>
<path d="M397.208 242.5C397.832 243.074 398.415 243.692 398.951 244.349C399.506 245.306 399.789 246.396 399.77 247.502C399.751 248.608 399.431 249.688 398.844 250.625C399.65 250.579 400.437 250.367 401.157 250.001C401.877 249.635 402.513 249.124 403.025 248.5C404.246 247.109 405.321 245.596 406.231 243.984C406.913 242.871 407.639 241.367 407.176 240.045C406.86 239.143 406.112 238.758 405.588 238.079C404.758 237.004 404.552 235.296 404.122 233.82C403.194 230.632 400.969 228.288 398.555 227.953L398.89 228.017C397.882 228.363 397.177 229.964 397.4 231.406C397.603 232.718 398.447 233.808 398.363 235.146C398.242 237.071 396.319 237.974 396.2 239.899C396.181 240.865 396.543 241.799 397.208 242.5Z" fill="white"/>
<path d="M385.744 209.791C385.754 209.788 385.764 209.787 385.774 209.785C385.98 209.597 386.171 209.394 386.345 209.177L385.744 209.791Z" fill="#E6E6E6"/>
<path d="M387.75 218.826C389.23 217.875 390.056 215.244 389.567 213.041C389.081 210.853 387.36 209.381 385.774 209.786C385.313 210.252 384.742 210.594 384.113 210.779C383.484 210.965 382.818 210.987 382.179 210.844C381.197 210.591 380.12 209.941 379.269 210.68C378.783 211.232 378.442 211.897 378.279 212.615C377.964 213.582 377.649 214.549 377.334 215.515C377.184 215.861 377.145 216.245 377.222 216.614C377.282 216.762 377.38 216.892 377.505 216.991C377.63 217.091 377.778 217.156 377.936 217.182C379.826 217.739 381.715 218.296 383.605 218.853C384.982 219.259 386.469 219.65 387.75 218.826Z" fill="white"/>
<path d="M530.406 343.557C529.533 342.127 528.659 340.697 527.786 339.267C526.928 337.611 525.755 336.138 524.333 334.931C524.02 334.669 523.658 334.472 523.268 334.352C522.878 334.232 522.469 334.191 522.063 334.232C521.657 334.273 521.263 334.394 520.905 334.589C520.547 334.784 520.231 335.049 519.977 335.367L520.083 336.184C522.074 338.682 524.18 341.457 524.685 345.165C524.885 346.626 524.815 348.139 524.99 349.607C525.165 351.074 525.661 352.597 526.608 353.23C527.984 354.148 529.599 352.794 530.578 351.14C531.453 349.783 531.846 348.17 531.692 346.562C531.474 345.483 531.036 344.46 530.406 343.557Z" fill="white"/>
<path d="M569.281 288.94C569.534 287.283 569.786 285.627 570.039 283.97C570.449 282.15 570.5 280.268 570.189 278.429C570.119 278.027 569.969 277.644 569.748 277.301C569.527 276.958 569.24 276.663 568.903 276.433C568.566 276.202 568.187 276.042 567.787 275.96C567.388 275.879 566.976 275.878 566.576 275.958L566.131 276.651C566.046 279.844 565.87 283.324 563.869 286.486C563.081 287.732 562.053 288.845 561.242 290.08C560.43 291.315 559.83 292.8 560.147 293.894C560.607 295.483 562.715 295.486 564.529 294.852C566.073 294.377 567.412 293.395 568.33 292.066C568.858 291.1 569.182 290.036 569.281 288.94Z" fill="#E6E6E6"/>
<path d="M544.11 345.418C544.537 344.191 543.92 342.783 543.79 341.426C543.728 339.673 544.192 337.942 545.124 336.457C546.049 335.055 546.751 333.518 547.202 331.9C547.393 331.163 547.358 330.386 547.103 329.669C546.813 329.019 546.113 328.723 545.711 329.237L546.571 329.791C545.41 329.584 544.218 329.642 543.082 329.96C542.435 330.208 541.856 330.608 541.396 331.127C540.936 331.646 540.607 332.268 540.438 332.941C540.296 333.989 540.064 335.024 539.745 336.033C539.232 337.087 538.24 337.438 537.616 338.363C537.19 339.183 536.976 340.096 536.991 341.02C537.006 341.943 537.251 342.849 537.704 343.655C538.487 344.972 539.732 345.952 541.197 346.402C542.247 346.779 543.63 346.799 544.11 345.418Z" fill="white"/>
<path d="M568.511 352.781C568.891 353.768 569.399 354.702 570.023 355.556C571.192 356.733 572.779 356.009 574.197 355.723C575.483 355.52 576.8 355.669 578.008 356.154C579.217 356.638 580.272 357.441 581.061 358.477C580.511 355.736 579.312 353.166 577.563 350.985C575.815 348.803 573.568 347.073 571.012 345.94C567.671 344.578 564.153 344.447 560.678 344.324L560.078 344.478C561.607 348.93 566.409 348.83 568.511 352.781Z" fill="white"/>
<path d="M465.158 361.886L465.167 361.906C465.225 361.794 465.283 361.681 465.342 361.569L465.158 361.886Z" fill="#E6E6E6"/>
<path d="M461.456 369.051C460.649 370.517 459.955 372.042 459.379 373.614C458.618 376.159 458.114 378.774 457.874 381.42C457.686 382.924 457.628 384.846 458.571 385.579C458.841 385.759 459.168 385.834 459.49 385.79C459.812 385.746 460.107 385.587 460.32 385.341C460.843 384.787 461.272 384.151 461.588 383.457C463.44 380.266 464.879 376.852 465.868 373.298C466.77 369.554 466.762 365.147 465.167 361.905C463.93 364.287 462.693 366.669 461.456 369.051Z" fill="white"/>
<path d="M425.745 178.149C426.333 178.724 427.076 179.114 427.883 179.271C428.69 179.429 429.526 179.347 430.287 179.035C431.863 178.346 433.309 177.391 434.561 176.212C435.598 175.445 436.477 174.486 437.151 173.386C437.523 172.729 437.761 172.005 437.852 171.256C437.943 170.506 437.885 169.747 437.681 169.02C437.096 167.308 435.611 166.734 434.301 166.346C432.203 165.724 430.106 165.102 428.009 164.48L429.526 163.112C427.965 162.274 426.238 163.829 425.262 165.754C424.636 167.011 424.2 168.354 423.968 169.739C423.445 172.76 423.956 176.358 425.745 178.149Z" fill="#E6E6E6"/>
<path d="M462.775 165.718C463.366 166.37 464.183 166.772 465.06 166.843C465.937 166.915 466.809 166.65 467.497 166.102C468.09 165.657 468.583 165.092 468.942 164.444C469.302 163.795 469.522 163.079 469.586 162.34C469.734 160.69 468.919 158.856 467.754 158.714L468.02 157.169C465.776 156.764 463.014 156.683 461.811 159.408C461.406 160.452 461.281 161.585 461.45 162.692C461.619 163.799 462.076 164.843 462.775 165.718Z" fill="#E6E6E6"/>
<path d="M457.829 83.5736C444.671 82.0894 431.463 85.8929 421.11 94.1473C410.756 102.402 404.106 114.431 402.622 127.588C399.531 154.988 413.966 214.487 440.284 239.117C452.675 191.928 496.098 163.938 501.844 138.781C507.983 111.9 485.228 86.6643 457.829 83.5736Z" fill="#40DC8B"/>
<path d="M448.728 144.486C457.72 144.486 465.01 137.196 465.01 128.203C465.01 119.211 457.72 111.921 448.728 111.921C439.735 111.921 432.445 119.211 432.445 128.203C432.445 137.196 439.735 144.486 448.728 144.486Z" fill="white"/>
<path d="M431.608 262.594C437.498 262.594 442.273 257.819 442.273 251.929C442.273 246.039 437.498 241.265 431.608 241.265C425.718 241.265 420.943 246.039 420.943 251.929C420.943 257.819 425.718 262.594 431.608 262.594Z" fill="#40DC8B"/>
<path opacity="0.2" d="M462.2 116.538C464.033 117.639 465.631 119.091 466.903 120.809C468.175 122.528 469.095 124.481 469.613 126.555C470.13 128.63 470.233 130.786 469.917 132.901C469.601 135.016 468.872 137.048 467.77 138.88C466.669 140.713 465.217 142.311 463.499 143.583C461.78 144.855 459.827 145.775 457.753 146.293C453.563 147.337 449.129 146.675 445.428 144.45C449.202 145.29 453.151 144.759 456.57 142.953C459.988 141.146 462.652 138.182 464.084 134.591C465.517 131 465.624 127.017 464.388 123.353C463.152 119.69 460.652 116.586 457.337 114.598C459.052 114.978 460.694 115.633 462.2 116.538Z" fill="#231F20"/>
<path opacity="0.2" d="M501.906 138.834C496.161 163.991 452.738 191.981 440.346 239.17C437.871 236.831 435.572 234.313 433.469 231.635C447.393 187.278 488.114 160.326 493.665 136.02C498.634 114.266 484.677 93.591 464.65 84.8574C488.892 90.9514 507.533 114.2 501.906 138.834Z" fill="#231F20"/>
<path d="M305.245 147.106C295.364 145.991 285.445 148.847 277.67 155.046C269.895 161.245 264.901 170.278 263.787 180.159C261.466 200.735 272.306 245.417 292.069 263.913C301.375 228.476 333.984 207.456 338.299 188.564C342.909 168.378 325.821 149.427 305.245 147.106Z" fill="#40DC8B"/>
<path d="M298.411 192.849C305.164 192.849 310.639 187.374 310.639 180.621C310.639 173.868 305.164 168.394 298.411 168.394C291.658 168.394 286.184 173.868 286.184 180.621C286.184 187.374 291.658 192.849 298.411 192.849Z" fill="white"/>
<path d="M285.556 281.543C289.979 281.543 293.564 277.957 293.564 273.534C293.564 269.111 289.979 265.525 285.556 265.525C281.133 265.525 277.547 269.111 277.547 273.534C277.547 277.957 281.133 281.543 285.556 281.543Z" fill="#40DC8B"/>
<path opacity="0.2" d="M308.529 171.86C309.906 172.687 311.105 173.777 312.061 175.068C313.016 176.359 313.707 177.825 314.096 179.383C314.484 180.941 314.562 182.561 314.324 184.149C314.087 185.737 313.539 187.262 312.712 188.639C311.885 190.015 310.795 191.215 309.504 192.17C308.213 193.125 306.747 193.817 305.189 194.205C303.631 194.594 302.012 194.671 300.424 194.434C298.836 194.197 297.31 193.649 295.934 192.822C298.768 193.452 301.734 193.053 304.301 191.697C306.868 190.34 308.868 188.114 309.944 185.418C311.02 182.721 311.101 179.729 310.172 176.979C309.244 174.228 307.367 171.897 304.877 170.403C306.165 170.689 307.398 171.181 308.529 171.86Z" fill="#231F20"/>
<path opacity="0.2" d="M338.348 188.604C334.033 207.496 301.424 228.515 292.118 263.952C290.259 262.196 288.533 260.305 286.953 258.294C297.41 224.984 327.99 204.744 332.158 186.491C335.89 170.154 325.409 154.628 310.369 148.069C328.574 152.646 342.573 170.105 338.348 188.604Z" fill="#231F20"/>
<path d="M688.062 590.054H674.637L668.25 538.27L688.065 538.271L688.062 590.054Z" fill="#A0616A"/>
<path d="M695.286 615.546H685.76L684.059 606.552L679.704 615.546H654.438C653.227 615.546 652.047 615.159 651.072 614.441C650.096 613.723 649.376 612.712 649.015 611.556C648.655 610.4 648.673 609.159 649.068 608.014C649.463 606.869 650.214 605.88 651.21 605.192L671.387 591.257V582.165L692.61 583.431L695.286 615.546Z" fill="#2F2E41"/>
<path d="M636.062 590.054H622.637L616.25 538.27L636.065 538.271L636.062 590.054Z" fill="#A0616A"/>
<path d="M643.286 615.546H633.76L632.059 606.552L627.704 615.546H602.438C601.227 615.546 600.047 615.159 599.072 614.441C598.096 613.723 597.376 612.712 597.015 611.556C596.655 610.4 596.673 609.159 597.068 608.014C597.463 606.869 598.214 605.88 599.21 605.192L619.387 591.257V582.165L640.61 583.431L643.286 615.546Z" fill="#2F2E41"/>
<path d="M585.059 453.333C587.629 457.186 615.578 563.126 615.578 563.126L640.361 565.952L637.419 539.297L632.923 492.127L625.961 460.642C625.961 460.642 650.548 404.685 652.102 400.228L653.207 397.029L660.889 466.744C661.801 469.233 662.199 471.881 662.058 474.528C661.826 478.883 666.194 544.397 666.194 544.397L668.294 567.892L689.527 570.842L698.142 530.189C705.335 516.984 701.212 470.058 698.27 465.69C695.329 461.323 696.497 430.904 696.497 430.904C700.254 429.582 722.654 353.198 711.45 353.649C712.169 349.576 712.734 345.941 712.734 345.941L693.286 330.256L644.613 317.603L632.333 311.707C632.333 311.707 610.401 352.261 610.62 354.278C610.922 356.833 610.337 359.413 608.963 361.587L586.819 435.695C586.819 435.695 582.465 449.44 585.059 453.333Z" fill="#2F2E41"/>
<path d="M707.342 188.147L699.598 171.707L673.244 172.72L664.648 189.823C664.648 189.823 640.081 219.166 639.286 228.707C638.286 240.707 646.597 299.519 638.286 295.707C638.286 295.707 618.691 318.707 630.286 318.707C641.88 318.707 694.328 351.631 697.77 355.334C701.211 359.036 716.574 361.437 715.286 353.707C713.997 345.977 707.342 304.173 707.342 304.173L725.36 238.44C730.546 224.249 732.16 208.33 720.437 198.797L707.342 188.147Z" fill="#CCCCCC"/>
<path d="M609.721 139.76C606.196 138.361 602.43 137.67 598.638 137.726C594.846 137.782 591.102 138.585 587.62 140.088C584.138 141.591 580.986 143.765 578.344 146.487C575.702 149.208 573.622 152.423 572.223 155.948C566.338 170.773 565.363 206.176 576.314 223.92C590.395 199.46 618.883 190.429 625.909 177.259C633.417 163.186 624.546 145.645 609.721 139.76Z" fill="#40DC8B"/>
<path d="M597.868 172.709C603.07 172.709 607.287 168.492 607.287 163.29C607.287 158.088 603.07 153.871 597.868 153.871C592.666 153.871 588.449 158.088 588.449 163.29C588.449 168.492 592.666 172.709 597.868 172.709Z" fill="white"/>
<path d="M569.529 235.923C572.936 235.923 575.698 233.161 575.698 229.754C575.698 226.347 572.936 223.585 569.529 223.585C566.121 223.585 563.359 226.347 563.359 229.754C563.359 233.161 566.121 235.923 569.529 235.923Z" fill="#40DC8B"/>
<path opacity="0.2" d="M607.158 158.824C608.884 160.628 609.823 163.043 609.768 165.539C609.714 168.035 608.671 170.407 606.869 172.134C605.067 173.862 602.653 174.803 600.157 174.751C597.661 174.699 595.288 173.659 593.559 171.859C595.538 172.9 597.823 173.203 600.005 172.714C602.187 172.224 604.124 170.974 605.469 169.187C606.814 167.4 607.479 165.193 607.345 162.961C607.211 160.728 606.287 158.616 604.738 157.003C605.638 157.475 606.455 158.091 607.158 158.824Z" fill="#231F20"/>
<path opacity="0.2" d="M625.938 177.297C618.912 190.467 590.424 199.499 576.344 223.958C575.317 222.277 574.416 220.522 573.648 218.708C588.155 196.063 614.976 187.2 621.765 174.475C627.841 163.086 623.189 149.427 613.337 141.512C625.943 148.594 632.819 164.401 625.938 177.297Z" fill="#231F20"/>
<path d="M566.748 227.63C568.182 227.334 569.663 227.357 571.088 227.696C572.512 228.035 573.845 228.682 574.993 229.591C576.14 230.501 577.074 231.651 577.729 232.961C578.383 234.271 578.743 235.708 578.782 237.172L600.151 245.374L598.333 259.575L568.32 247.568C565.856 247.471 563.514 246.474 561.737 244.765C559.96 243.056 558.871 240.755 558.678 238.297C558.484 235.84 559.198 233.396 560.686 231.43C562.173 229.464 564.33 228.112 566.748 227.63Z" fill="#A0616A"/>
<path d="M716.053 198.365C713.803 196.992 711.304 196.076 708.7 195.67C706.095 195.265 703.436 195.377 700.875 196.001C698.314 196.626 695.902 197.749 693.776 199.308C691.65 200.867 689.853 202.83 688.488 205.084L657.816 255.734L588.47 239.296L582.152 256.64L670.958 298.706L715.935 227.069C722.669 217.606 725.966 204.417 716.053 198.365Z" fill="#CCCCCC"/>
<path d="M717.198 136.293C717.2 141.174 716.004 145.982 713.714 150.293C711.424 154.604 708.111 158.287 704.065 161.019C700.019 163.751 695.365 165.448 690.51 165.961C685.656 166.474 680.749 165.788 676.222 163.962C671.695 162.137 667.685 159.227 664.544 155.49C661.403 151.753 659.228 147.302 658.209 142.528C657.191 137.754 657.359 132.802 658.701 128.109C660.042 123.415 662.515 119.122 665.903 115.607L666.046 115.464C666.285 115.214 666.524 114.963 666.774 114.725C666.776 114.725 666.777 114.724 666.779 114.724C666.78 114.723 666.781 114.722 666.783 114.721C666.784 114.72 666.784 114.719 666.785 114.717C666.786 114.716 666.786 114.714 666.786 114.713C667.096 114.426 667.406 114.14 667.728 113.866C672.038 110.088 677.345 107.632 683.014 106.792C688.683 105.952 694.474 106.764 699.694 109.13C704.914 111.496 709.341 115.317 712.445 120.134C715.55 124.952 717.2 130.562 717.198 136.293Z" fill="#2F2E41"/>
<path d="M680.027 168.201C693.839 168.201 705.035 157.005 705.035 143.193C705.035 129.382 693.839 118.186 680.027 118.186C666.216 118.186 655.02 129.382 655.02 143.193C655.02 157.005 666.216 168.201 680.027 168.201Z" fill="#9E616A"/>
<path d="M706.583 150.325L702.44 149.593C700.125 149.172 697.993 148.055 696.33 146.39C694.668 144.724 693.553 142.591 693.135 140.276L689.092 147.052L688.915 147.11C679.283 150.308 669.26 149.352 658.282 144.19C655.143 142.701 652.098 141.022 649.163 139.162L648.947 139.027L648.929 138.773C648.37 130.637 650.195 123.841 654.071 119.636C655.559 118.053 657.364 116.803 659.369 115.968C661.374 115.132 663.533 114.729 665.704 114.786C665.859 114.746 666.001 114.667 666.118 114.558C666.173 114.517 666.229 114.476 666.285 114.438V114.396L666.572 114.261C667.189 113.971 667.818 113.693 668.447 113.439C673.395 111.523 678.783 111.043 683.993 112.052C689.202 113.062 694.021 115.521 697.895 119.147C705.598 126.501 709.131 138.842 706.687 149.858L706.583 150.325Z" fill="#2F2E41"/>
<path d="M759.331 171.632C750.821 167.24 761.765 151.298 759.566 141.977C757.367 132.656 741.529 129.658 740.52 120.135C739.511 110.611 737.138 100.789 730.853 93.5621C726.838 88.9444 720.921 85.5354 714.828 86.1138C712.767 86.3095 710.772 86.9472 708.98 87.9833C707.187 89.0195 705.639 90.4299 704.44 92.1183C703.242 93.8068 702.422 95.7337 702.035 97.7678C701.648 99.802 701.705 101.896 702.2 103.906C700.466 101.448 695.977 101.981 694.866 104.776C693.878 107.262 696.06 110.272 698.628 110.492C701.989 114.642 705.837 119.046 711.101 119.883C711.94 120.076 712.812 120.076 713.651 119.882C714.489 119.688 715.273 119.307 715.942 118.766C717.181 117.577 717.277 115.199 715.808 114.31C722.424 116.938 726.303 124.091 727.285 131.142C728.266 138.193 726.908 145.328 726.013 152.39C725.118 159.453 724.733 166.882 727.502 173.441C730.774 181.189 738.306 186.743 746.527 188.524C754.748 190.305 763.503 188.565 770.944 184.643C778.385 180.721 784.59 174.733 789.659 168.021C780.927 174.221 768.847 176.544 759.331 171.632Z" fill="#2F2E41"/>
<path d="M705.521 149.629C705.521 149.629 698.112 121.978 666.357 115.596C666.321 115.584 666.202 115.536 666.047 115.465C665.952 115.405 665.832 115.345 665.713 115.286C666.071 115.083 666.417 114.904 666.775 114.725L666.779 114.724L666.783 114.721L666.786 114.717L666.786 114.713C667.097 114.427 667.407 114.14 667.729 113.866L668.636 113.902C668.636 113.902 700.498 108.856 705.521 149.629Z" fill="#FD6584"/>
<path opacity="0.2" d="M688.933 238.357L670.998 259.136L641.363 250.385L673.67 265.273L688.933 238.357Z" fill="black"/>
<path d="M796.586 617.112L520.836 617.419C520.521 617.418 520.219 617.292 519.996 617.069C519.773 616.846 519.648 616.544 519.648 616.228C519.648 615.913 519.773 615.611 519.996 615.388C520.219 615.165 520.521 615.039 520.836 615.038L796.586 614.73C796.901 614.73 797.204 614.856 797.428 615.079C797.651 615.302 797.776 615.605 797.776 615.921C797.776 616.237 797.651 616.54 797.428 616.763C797.204 616.986 796.901 617.112 796.586 617.112Z" fill="#CACACA"/>
<path d="M808.69 432.072C795.778 432.072 781.626 431.584 766.234 430.608C686.62 425.553 583.496 407.976 475.858 381.116C368.22 354.257 268.927 321.322 196.272 288.382C160.879 272.335 133.716 257.146 115.537 243.234C96.2896 228.507 87.8707 215.67 90.5128 205.082C95.6608 184.453 141.244 179.939 178.577 179.786L178.589 182.786C127.321 182.997 97.0758 191.173 93.4239 205.808C88.7721 224.448 126.711 253.549 197.511 285.649C270.006 318.518 369.116 351.389 476.584 378.206C584.051 405.022 686.985 422.569 766.424 427.614C844.003 432.542 891.167 424.677 895.818 406.036C899.68 390.56 874.22 367.761 824.129 341.838L825.508 339.174C861.905 358.01 904.153 385.025 898.73 406.763C896.087 417.352 882.624 424.728 858.715 428.686C845.085 430.941 828.344 432.072 808.69 432.072Z" fill="#40DC8B"/>
</g>
</g>
<defs>
<linearGradient id="paint0_linear_68_11862" x1="932" y1="636.5" x2="484.5" y2="183" gradientUnits="userSpaceOnUse">
<stop stop-color="#E3F5DC" stop-opacity="0.8"/>
<stop offset="0.691788" stop-color="#E3F5DC" stop-opacity="0.04"/>
</linearGradient>
<clipPath id="clip0_68_11862">
<rect width="925" height="631" fill="white"/>
</clipPath>
<clipPath id="clip1_68_11862">
<rect width="825.202" height="591.419" fill="white" transform="translate(74 26)"/>
</clipPath>
</defs>
</svg>
